<?xml version="1.0" encoding="utf-8"?>
<!-- Generator: Adobe Illustrator 16.0.0, SVG Export Plug-In . SVG Version: 6.00 Build 0)  -->
<!DOCTYPE svg PUBLIC "-//W3C//DTD SVG 1.1//EN" "http://www.w3.org/Graphics/SVG/1.1/DTD/svg11.dtd">
<svg version="1.1" id="Layer_1" xmlns="http://www.w3.org/2000/svg" xmlns:xlink="http://www.w3.org/1999/xlink" x="0px" y="0px"
	 width="166px" height="41px" viewBox="0 0 166 41" enable-background="new 0 0 166 41" xml:space="preserve">
<path fill="#FFFFFF" d="M7.959,2.083C7.906,2.091,7.854,2.104,7.803,2.123C7.795,2.126,7.786,2.131,7.777,2.136
	C7.76,2.139,7.743,2.144,7.726,2.148C7.717,2.152,7.708,2.157,7.7,2.161C7.682,2.169,7.665,2.178,7.647,2.187
	C7.643,2.191,7.639,2.195,7.635,2.2C7.617,2.208,7.6,2.216,7.583,2.226C7.574,2.234,7.565,2.243,7.557,2.251
	C7.5,2.292,7.447,2.34,7.401,2.395l-7.01,5.984c-0.062,0.04-0.119,0.088-0.168,0.143C0.208,8.539,0.195,8.556,0.183,8.574
	C0.179,8.578,0.174,8.583,0.17,8.587C0.156,8.604,0.143,8.621,0.131,8.639C0.126,8.643,0.123,8.647,0.118,8.651
	C0.108,8.672,0.1,8.694,0.092,8.716C0.083,8.733,0.074,8.75,0.066,8.768C0.062,8.777,0.057,8.786,0.053,8.794
	c0,0.004,0,0.009,0,0.013C0.043,8.828,0.035,8.85,0.027,8.872c0,0.004,0,0.008,0,0.013C0.022,8.906,0.018,8.928,0.014,8.95
	c0,0.009,0,0.017,0,0.026C0.009,8.997,0.005,9.019,0.001,9.041C0,9.066,0,9.092,0.001,9.118C0,9.148,0,9.179,0.001,9.209v23.354
	c0.003,0.465,0.362,0.84,0.805,0.844h2.012v1.74c0.003,0.464,0.362,0.84,0.805,0.844h1.986v1.844
	c0.003,0.463,0.362,0.839,0.805,0.844h22.641c0.449,0.003,0.814-0.375,0.818-0.844V8.197c-0.003-0.47-0.369-0.847-0.818-0.844
	h-1.973V5.509c-0.003-0.469-0.37-0.847-0.818-0.844h-1.999V2.939c0.003-0.47-0.357-0.854-0.806-0.857c-0.004,0-0.008,0-0.012,0
	H8.102c-0.021-0.001-0.043-0.001-0.065,0c-0.026-0.001-0.052-0.001-0.078,0V2.083z M8.855,3.784h13.787v0.883H10.919
	c-0.022-0.001-0.043-0.001-0.065,0c-0.008,0-0.017,0-0.025,0c-0.08,0.001-0.158,0.014-0.234,0.039
	C10.525,4.731,10.46,4.766,10.4,4.81c-0.018,0.012-0.035,0.025-0.052,0.039c-0.004,0.004-0.009,0.008-0.013,0.013l-0.039,0.026
	c-0.009,0.008-0.017,0.017-0.026,0.026L8.855,6.121V3.784L8.855,3.784z M7.232,4.732v2.791l-0.87,0.74H3.091L7.232,4.732z
	 M11.672,6.368h13.787v0.987H13.71c-0.021-0.001-0.043-0.001-0.065,0c-0.009,0-0.017,0-0.026,0c-0.08,0.001-0.158,0.014-0.234,0.039
	c-0.018,0.008-0.035,0.017-0.052,0.025c-0.009,0.004-0.018,0.009-0.026,0.013c-0.041,0.018-0.08,0.04-0.117,0.065
	c-0.018,0.012-0.035,0.025-0.052,0.039c-0.004,0.004-0.009,0.008-0.013,0.013l-0.039,0.026c-0.009,0.008-0.018,0.017-0.026,0.026
	l-1.389,1.194V6.368L11.672,6.368z M10.049,7.302v2.7c-0.001,0.057,0.003,0.113,0.013,0.169l-0.792,0.675c-0.017,0-0.035,0-0.052,0
	H5.908L10.049,7.302z M1.624,9.963h2.752l-1.194,1c-0.009,0.008-0.018,0.017-0.026,0.026l-0.039,0.039
	c-0.109,0.092-0.195,0.213-0.247,0.351c-0.01,0.025-0.018,0.051-0.026,0.078c0,0.004,0,0.009,0,0.013
	c-0.005,0.021-0.009,0.043-0.013,0.065c0,0.004,0,0.009,0,0.013c-0.006,0.026-0.01,0.051-0.013,0.078
	c-0.001,0.021-0.001,0.043,0,0.065c-0.002,0.035-0.002,0.069,0,0.104v19.914H1.624V9.963L1.624,9.963z M12.84,9.99v3.544H8.699
	L12.84,9.99z M16.138,11.638c0.026-0.001,0.052-0.001,0.078,0h9.789c0.459-0.006,0.836,0.36,0.843,0.819
	c0.006,0.459-0.36,0.836-0.819,0.843c-0.008,0-0.016,0-0.023,0h-9.789c-0.459,0.021-0.848-0.333-0.87-0.792
	C15.325,12.049,15.679,11.66,16.138,11.638L16.138,11.638z M4.441,12.547h2.83l-1.259,1.078c-0.023,0.016-0.044,0.034-0.065,0.052
	l-0.04,0.039c-0.008,0.004-0.017,0.009-0.025,0.013c-0.014,0.017-0.027,0.034-0.039,0.052c-0.004,0.004-0.009,0.009-0.013,0.013
	c-0.014,0.017-0.026,0.034-0.039,0.052c-0.004,0.004-0.008,0.008-0.013,0.013c-0.014,0.017-0.027,0.034-0.039,0.052
	c-0.004,0.004-0.009,0.009-0.013,0.013c-0.009,0.021-0.018,0.043-0.025,0.065c-0.009,0.017-0.018,0.034-0.026,0.052
	c-0.004,0.008-0.009,0.017-0.013,0.026c0,0.004,0,0.008,0,0.013c-0.01,0.021-0.019,0.043-0.026,0.065c0,0.004,0,0.008,0,0.013
	c-0.005,0.022-0.009,0.043-0.013,0.065c0,0.004,0,0.008,0,0.013c-0.006,0.025-0.01,0.052-0.013,0.078c0,0.021,0,0.043,0,0.065
	c-0.002,0.035-0.002,0.069,0,0.104v19.81H4.441V12.547L4.441,12.547z M16.073,14.948c0.03-0.001,0.061-0.001,0.091,0h9.789
	c0.459-0.006,0.836,0.36,0.842,0.819c0.007,0.459-0.36,0.836-0.819,0.843c-0.008,0-0.016,0-0.023,0h-9.789
	c-0.459,0.025-0.851-0.327-0.876-0.786S15.614,14.974,16.073,14.948z M10.542,18.363c0.03-0.001,0.061-0.001,0.091,0h15.475
	c0.458-0.006,0.836,0.36,0.843,0.819c0.006,0.459-0.36,0.836-0.819,0.843c-0.008,0-0.016,0-0.023,0H10.633
	c-0.458,0.024-0.851-0.327-0.876-0.786C9.732,18.78,10.084,18.388,10.542,18.363z M10.542,21.725c0.03-0.001,0.061-0.001,0.091,0
	h15.423c0.459-0.006,0.836,0.36,0.843,0.819c0.007,0.459-0.36,0.836-0.819,0.842c-0.008,0.001-0.016,0.001-0.024,0H10.633
	c-0.458,0.025-0.85-0.327-0.875-0.786C9.735,22.142,10.085,21.751,10.542,21.725z M10.607,25.087c0.026-0.001,0.052-0.001,0.078,0
	h15.319c0.459-0.006,0.836,0.36,0.843,0.819c0.006,0.459-0.36,0.837-0.819,0.843c-0.008,0-0.016,0-0.023,0H10.686
	c-0.459,0.021-0.848-0.333-0.87-0.792S10.149,25.108,10.607,25.087L10.607,25.087z M10.607,28.501c0.026,0,0.052,0,0.078,0h15.267
	c0.459-0.006,0.836,0.361,0.842,0.82c0.007,0.458-0.36,0.836-0.819,0.842c-0.008,0-0.016,0-0.023,0H10.686
	c-0.459,0.021-0.848-0.332-0.87-0.791C9.794,28.913,10.148,28.522,10.607,28.501L10.607,28.501z M10.607,31.812
	c0.026,0,0.052,0,0.078,0h15.319c0.459-0.006,0.836,0.361,0.843,0.82c0.006,0.458-0.36,0.836-0.819,0.842c-0.008,0-0.016,0-0.023,0
	H10.686c-0.459,0.021-0.848-0.333-0.87-0.792C9.794,32.224,10.148,31.833,10.607,31.812L10.607,31.812z"/>
<g>
	<path fill="#FFFFFF" d="M42.815,16.104h5.328l5.629,17.057h0.086l5.414-17.057h5.07l-7.949,22.213h-5.5L42.815,16.104z"/>
	<path fill="#FFFFFF" d="M84.793,33.376c0,0.602,0.079,1.031,0.236,1.289s0.466,0.387,0.924,0.387c0.144,0,0.315,0,0.516,0
		s0.43-0.028,0.688-0.086v3.395c-0.172,0.057-0.395,0.121-0.666,0.193c-0.272,0.07-0.552,0.135-0.838,0.193
		c-0.286,0.057-0.573,0.1-0.859,0.129c-0.286,0.027-0.53,0.043-0.73,0.043c-1.003,0-1.833-0.201-2.492-0.602
		s-1.089-1.103-1.289-2.105c-0.974,0.945-2.17,1.633-3.587,2.062c-1.418,0.43-2.786,0.645-4.104,0.645
		c-1.003,0-1.962-0.137-2.879-0.408c-0.917-0.271-1.726-0.673-2.427-1.203c-0.703-0.529-1.261-1.203-1.676-2.02
		c-0.416-0.816-0.623-1.769-0.623-2.857c0-1.375,0.25-2.492,0.752-3.352c0.5-0.859,1.16-1.531,1.976-2.02
		c0.816-0.486,1.733-0.838,2.75-1.053c1.017-0.215,2.041-0.379,3.072-0.494c0.888-0.172,1.733-0.293,2.535-0.365
		c0.801-0.07,1.51-0.193,2.126-0.365s1.103-0.436,1.461-0.795c0.358-0.357,0.537-0.895,0.537-1.61c0-0.63-0.15-1.146-0.451-1.547
		c-0.301-0.401-0.673-0.709-1.117-0.924s-0.938-0.358-1.481-0.43c-0.544-0.071-1.06-0.107-1.547-0.107
		c-1.375,0-2.507,0.287-3.395,0.859c-0.888,0.573-1.39,1.461-1.504,2.664h-4.898c0.086-1.433,0.43-2.621,1.031-3.566
		c0.601-0.945,1.367-1.704,2.298-2.277c0.931-0.572,1.983-0.973,3.158-1.203c1.174-0.229,2.377-0.343,3.609-0.343
		c1.088,0,2.162,0.115,3.222,0.343c1.06,0.23,2.013,0.602,2.857,1.117s1.525,1.182,2.041,1.998s0.773,1.812,0.773,2.986V33.376z
		 M79.895,27.188c-0.745,0.488-1.661,0.781-2.749,0.881c-1.089,0.102-2.177,0.252-3.266,0.451c-0.516,0.086-1.017,0.209-1.504,0.365
		c-0.487,0.158-0.917,0.373-1.289,0.645c-0.373,0.273-0.666,0.631-0.881,1.074c-0.215,0.444-0.322,0.981-0.322,1.611
		c0,0.545,0.157,1.003,0.473,1.375c0.315,0.373,0.694,0.666,1.139,0.881c0.444,0.215,0.931,0.365,1.461,0.451
		c0.53,0.086,1.01,0.129,1.439,0.129c0.543,0,1.131-0.071,1.762-0.215c0.629-0.143,1.225-0.387,1.782-0.73
		c0.559-0.344,1.024-0.78,1.396-1.311c0.372-0.529,0.559-1.182,0.559-1.955V27.188z"/>
	<path fill="#FFFFFF" d="M88.961,16.104h4.598V20.4h0.086c0.143-0.602,0.422-1.188,0.838-1.762c0.414-0.573,0.916-1.096,1.504-1.568
		c0.586-0.473,1.238-0.852,1.955-1.139c0.715-0.286,1.445-0.429,2.19-0.429c0.573,0,0.967,0.015,1.182,0.043
		c0.215,0.029,0.437,0.058,0.666,0.085v4.727c-0.344-0.057-0.694-0.107-1.053-0.15s-0.709-0.064-1.053-0.064
		c-0.831,0-1.611,0.165-2.341,0.494c-0.73,0.33-1.369,0.816-1.912,1.461c-0.545,0.645-0.975,1.438-1.289,2.384
		c-0.315,0.945-0.473,2.035-0.473,3.266v10.57h-4.898V16.104z"/>
	<path fill="#FFFFFF" d="M119.854,33.591h-0.086c-0.917,1.748-2.062,3.059-3.438,3.932s-3.051,1.311-5.027,1.311
		c-1.661,0-3.093-0.316-4.296-0.945c-1.203-0.63-2.191-1.475-2.965-2.535c-0.773-1.06-1.347-2.284-1.719-3.674
		c-0.373-1.389-0.559-2.842-0.559-4.361c0-1.633,0.2-3.158,0.602-4.575c0.4-1.418,1.01-2.643,1.826-3.674s1.84-1.848,3.072-2.449
		c1.23-0.601,2.678-0.902,4.339-0.902c0.888,0,1.762,0.123,2.621,0.366c0.859,0.244,1.654,0.595,2.385,1.052
		c0.73,0.459,1.368,1.031,1.912,1.719s0.96,1.461,1.246,2.32h0.086V7.639h1.633v30.678h-1.633V33.591z M111.646,37.415
		c1.403,0,2.614-0.286,3.631-0.859c1.017-0.572,1.862-1.332,2.535-2.277s1.175-2.026,1.504-3.244
		c0.329-1.217,0.494-2.455,0.494-3.717c0-1.289-0.165-2.541-0.494-3.76c-0.329-1.217-0.823-2.305-1.482-3.265
		c-0.659-0.959-1.511-1.725-2.557-2.299c-1.046-0.573-2.271-0.859-3.674-0.859c-1.46,0-2.706,0.279-3.737,0.838
		s-1.885,1.311-2.557,2.256c-0.674,0.945-1.16,2.034-1.461,3.265c-0.301,1.232-0.451,2.508-0.451,3.824
		c0,1.289,0.164,2.543,0.494,3.76c0.329,1.218,0.83,2.299,1.504,3.244c0.672,0.945,1.525,1.697,2.557,2.256
		C108.982,37.136,110.214,37.415,111.646,37.415z"/>
	<path fill="#FFFFFF" d="M124.537,27.274c0-1.574,0.222-3.057,0.666-4.446c0.443-1.39,1.096-2.614,1.955-3.674
		c0.859-1.059,1.919-1.897,3.18-2.514c1.26-0.615,2.707-0.924,4.34-0.924c1.632,0,3.078,0.309,4.339,0.924
		c1.261,0.617,2.32,1.455,3.18,2.514c0.859,1.06,1.511,2.284,1.955,3.674s0.666,2.872,0.666,4.446c0,1.576-0.222,3.066-0.666,4.469
		c-0.444,1.404-1.096,2.629-1.955,3.674c-0.859,1.046-1.919,1.877-3.18,2.492s-2.707,0.924-4.339,0.924
		c-1.633,0-3.08-0.309-4.34-0.924c-1.261-0.615-2.32-1.446-3.18-2.492c-0.859-1.045-1.512-2.27-1.955-3.674
		C124.759,30.341,124.537,28.851,124.537,27.274z M126.17,27.274c0,1.318,0.186,2.586,0.559,3.803
		c0.372,1.218,0.916,2.299,1.633,3.244c0.716,0.945,1.604,1.697,2.664,2.256c1.059,0.559,2.277,0.838,3.652,0.838
		c1.374,0,2.592-0.279,3.651-0.838s1.948-1.311,2.664-2.256s1.261-2.026,1.633-3.244c0.372-1.217,0.559-2.484,0.559-3.803
		c0-1.316-0.187-2.584-0.559-3.803c-0.372-1.217-0.917-2.298-1.633-3.243s-1.604-1.697-2.664-2.256s-2.277-0.838-3.651-0.838
		c-1.375,0-2.594,0.279-3.652,0.838c-1.061,0.559-1.948,1.311-2.664,2.256c-0.717,0.945-1.261,2.026-1.633,3.243
		C126.355,24.69,126.17,25.958,126.17,27.274z"/>
	<path fill="#FFFFFF" d="M164.152,23.064c-0.086-0.974-0.338-1.833-0.752-2.578c-0.416-0.745-0.953-1.36-1.611-1.848
		c-0.659-0.487-1.426-0.859-2.299-1.117c-0.874-0.258-1.812-0.387-2.814-0.387c-1.375,0-2.593,0.279-3.652,0.838
		s-1.948,1.304-2.664,2.234c-0.716,0.931-1.261,1.991-1.633,3.179c-0.372,1.189-0.559,2.414-0.559,3.674
		c0,1.49,0.172,2.865,0.516,4.125c0.344,1.261,0.874,2.356,1.59,3.287c0.716,0.932,1.604,1.654,2.664,2.17s2.306,0.773,3.738,0.773
		c1.031,0,1.983-0.172,2.857-0.516c0.873-0.344,1.646-0.816,2.32-1.418c0.673-0.602,1.225-1.324,1.654-2.17
		c0.43-0.845,0.715-1.769,0.859-2.771H166c-0.172,1.318-0.531,2.492-1.074,3.523c-0.545,1.031-1.232,1.898-2.062,2.6
		c-0.831,0.702-1.776,1.239-2.836,1.611c-1.061,0.371-2.178,0.559-3.352,0.559c-1.805,0-3.345-0.322-4.619-0.967
		s-2.32-1.511-3.137-2.6c-0.816-1.088-1.418-2.342-1.805-3.76s-0.58-2.9-0.58-4.447s0.222-3.008,0.666-4.382
		c0.444-1.375,1.096-2.578,1.955-3.609s1.919-1.848,3.18-2.449c1.261-0.601,2.707-0.902,4.34-0.902c1.203,0,2.327,0.15,3.373,0.452
		c1.045,0.3,1.977,0.751,2.793,1.353s1.482,1.368,1.998,2.299c0.516,0.931,0.83,2.013,0.945,3.244H164.152z"/>
</g>
</svg>
