<?xml version="1.0" encoding="UTF-8" standalone="no"?>
<svg width="166px" height="41px" viewBox="0 0 166 41" version="1.1" xmlns="http://www.w3.org/2000/svg" xmlns:xlink="http://www.w3.org/1999/xlink">
    <!-- Generator: Sketch 43.2 (39069) - http://www.bohemiancoding.com/sketch -->
    <title>Group</title>
    <desc>Created with Sketch.</desc>
    <defs></defs>
    <g id="Work" stroke="none" stroke-width="1" fill="none" fill-rule="evenodd">
        <g id="Homepage-1.0" transform="translate(-150.000000, -20.000000)" fill="#FFFFFF">
            <g id="Group" transform="translate(150.000000, 20.000000)">
                <g id="Group-2">
                    <polygon id="Fill-1" points="21.2388925 10.9516546 14.3148079 32.7506346 14.2041839 32.7506346 7.00503445 10.9516546 0.190452504 10.9516546 10.5225756 39.3393566 17.5572842 39.3393566 27.7238451 10.9516546"></polygon>
                    <g id="Group-20" transform="translate(27.655976, 0.000000)">
                        <path d="M19.1923129,25.1180231 C17.2691014,26.380877 14.3009425,26.3259865 11.4983457,26.8207475 C8.80562534,27.2594977 6.3875961,28.2478994 6.3875961,31.5424471 C6.3875961,34.3982445 9.95970174,35.1663376 12.1579781,35.1663376 C14.9056367,35.1663376 19.1923129,33.7388122 19.1923129,29.7852056 L19.1923129,25.1180231 Z M25.4575126,33.0248629 C25.4575126,34.5625425 25.787142,35.1663376 26.9412184,35.1663376 L27.600477,35.1663376 C27.8755419,35.1663376 28.150233,35.1114471 28.4802361,35.0565566 L28.4802361,39.3943965 C27.5459126,39.7237392 25.5673891,40.1087192 24.5231891,40.1087192 C21.9399715,40.1087192 20.1812009,39.2297251 19.6871307,36.6491267 C17.2141632,39.0654271 13.202178,40.1087192 9.84982529,40.1087192 C4.73870197,40.1087192 0.122770109,37.3627027 0.122770109,31.8168994 C0.122770109,24.7337899 5.78290193,23.5807168 11.0584662,22.9772952 C15.6198336,22.098301 19.5768805,22.7020961 19.5768805,18.9684247 C19.5768805,15.673877 16.1695895,15.124599 13.696622,15.124599 C10.1798284,15.124599 7.70686089,16.5524977 7.43142232,19.6271102 L1.16659633,19.6271102 C1.60610211,12.3244388 7.76142539,10.1829642 14.0811896,10.1829642 C19.6318187,10.1829642 25.4575126,12.4342198 25.4575126,18.4198935 L25.4575126,33.0248629 Z" id="Fill-2"></path>
                        <path d="M30.0180578,10.951804 L35.8983162,10.951804 L35.8983162,16.4427168 L36.0085664,16.4427168 C36.7227633,13.4226214 40.5149956,10.1829642 44.3068541,10.1829642 C45.7905598,10.1829642 46.0656247,10.2927451 46.6703188,10.3476355 L46.6703188,16.387453 C45.7905598,16.2227816 44.85661,16.1130007 43.9775985,16.1130007 C39.7454867,16.1130007 36.2832575,19.5173293 36.2832575,25.8319724 L36.2832575,39.339506 L30.0180578,39.339506 L30.0180578,10.951804 Z" id="Fill-4"></path>
                        <path d="M68.7070863,25.2828438 C68.7070863,18.6937484 65.4642362,12.2696977 58.2101485,12.2696977 C50.7359342,12.2696977 47.7132107,18.4741865 47.7132107,25.2828438 C47.7132107,31.9268297 51.0106253,38.1865823 58.2650867,38.1865823 C65.409298,38.1865823 68.7070863,31.7625317 68.7070863,25.2828438 L68.7070863,25.2828438 Z M68.7616507,33.2994645 L68.6517743,33.2994645 C66.2886833,37.7470853 62.8813923,39.9983409 57.8255809,39.9983409 C49.3071666,39.9983409 45.6248108,33.0250122 45.6248108,25.2828438 C45.6248108,16.9368803 49.6921079,10.4575658 58.2101485,10.4575658 C62.8268278,10.4575658 67.1680686,12.9832737 68.6517743,17.4308944 L68.7616507,17.4308944 L68.7616507,0.134425612 L70.8496769,0.134425612 L70.8496769,39.3400288 L68.7616507,39.3400288 L68.7616507,33.2994645 Z" id="Fill-6"></path>
                        <path d="M86.9519578,38.186433 C93.9859189,38.186433 97.8330893,31.9815708 97.8330893,25.227804 C97.8330893,18.4740372 93.9859189,12.2695484 86.9519578,12.2695484 C79.9176229,12.2695484 76.0708262,18.4740372 76.0708262,25.227804 C76.0708262,31.9815708 79.9176229,38.186433 86.9519578,38.186433 M86.9519578,10.4574164 C95.3055574,10.4574164 99.9214893,17.2111832 99.9214893,25.227804 C99.9214893,33.2996886 95.3055574,39.9989383 86.9519578,39.9989383 C78.5979844,39.9989383 73.9824263,33.2996886 73.9824263,25.227804 C73.9824263,17.2111832 78.5979844,10.4574164 86.9519578,10.4574164" id="Fill-8"></path>
                        <path d="M113.000224,12.9283832 L106.844901,12.9283832 L106.844901,32.6404056 C106.844901,37.1436636 108.988613,37.6921948 112.945286,37.5275234 L112.945286,39.339282 C108.768486,39.6141077 104.482184,39.0103126 104.756128,32.6404056 L104.756128,12.9283832 L99.536249,12.9283832 L99.536249,11.1166247 L104.756128,11.1166247 L104.756128,2.33079075 L106.844901,2.33079075 L106.844901,11.1166247 L113.000224,11.1166247 L113.000224,12.9283832 Z" id="Fill-10"></path>
                        <path d="M137.406511,25.5399328 L137.406511,37.9414423 C137.406511,38.534782 136.919915,39.0202078 136.325312,39.0202078 L123.914132,39.0202078 C123.319902,39.0202078 122.832559,38.534782 122.832559,37.9414423 L122.832559,25.5399328 C122.832559,24.9462197 123.319902,24.4604204 123.914132,24.4604204 L136.325312,24.4604204 C136.919915,24.4604204 137.406511,24.9462197 137.406511,25.5399328 Z M126.785159,33.9918311 C126.785159,34.586291 127.272502,35.0732105 127.867105,35.0732105 L132.374282,35.0732105 C132.971128,35.0732105 133.456229,34.586291 133.456229,33.9918311 L133.456229,29.4863327 C133.456229,28.8926196 132.971128,28.4079406 132.374282,28.4079406 L127.867105,28.4079406 C127.272502,28.4079406 126.785159,28.8926196 126.785159,29.4863327 L126.785159,33.9918311 Z" id="Combined-Shape"></path>
                        <path d="M116.764876,0.309776355 L116.764876,0.175350743 C116.764876,0.150706047 116.785431,0.134649655 116.810097,0.134649655 L118.934375,0.134649655 L118.934375,0.264967818 C118.934375,0.289239109 118.91382,0.309776355 118.889527,0.309776355 L117.95184,0.309776355 L117.95184,3.14503656 C117.95184,3.16968125 117.931285,3.18984509 117.906619,3.18984509 L117.738814,3.18984509 L117.738814,0.309776355 L116.764876,0.309776355 Z" id="Fill-16"></path>
                        <path d="M121.829208,0.134574974 L122.089697,0.134574974 L122.089697,3.19014382 L121.92264,3.19014382 C121.898348,3.19014382 121.878166,3.16960657 121.878166,3.14533528 L121.878166,0.407533647 C121.878166,0.407533647 120.940106,2.08187933 120.780523,2.35894545 C120.768938,2.37910929 120.74016,2.39553909 120.715868,2.39553909 L120.540589,2.39553909 C120.515549,2.39553909 120.483035,2.37910929 120.471449,2.35894545 L119.37829,0.407533647 L119.37829,3.14533528 C119.37829,3.16960657 119.358483,3.19014382 119.333443,3.19014382 L119.166386,3.19014382 L119.166386,0.134574974 L119.427623,0.134574974 C119.435845,0.134574974 119.455652,0.146897322 119.459763,0.15511222 L120.630284,2.21219749 L121.79632,0.15511222 C121.800804,0.146897322 121.820612,0.134574974 121.829208,0.134574974" id="Fill-18"></path>
                    </g>
                </g>
            </g>
        </g>
    </g>
</svg>