<?xml version="1.0" encoding="UTF-8" standalone="no"?>
<svg width="176px" height="43px" viewBox="0 0 176 43" version="1.1" xmlns="http://www.w3.org/2000/svg" xmlns:xlink="http://www.w3.org/1999/xlink">
    <!-- Generator: Sketch 41 (35326) - http://www.bohemiancoding.com/sketch -->
    <title>Group 2</title>
    <desc>Created with Sketch.</desc>
    <defs></defs>
    <g id="--" stroke="none" stroke-width="1" fill="none" fill-rule="evenodd">
        <g id="Header-White-Background" transform="translate(0.000000, -5.000000)">
            <g id="Group-2" transform="translate(0.000000, 5.000000)">
                <polygon id="Fill-1" fill="#2C3E50" points="22.646289 11.6773667 15.2633795 34.9208574 15.1454251 34.9208574 7.46922348 11.6773667 0.203072851 11.6773667 11.2198547 41.9461815 18.7207186 41.9461815 29.5609674 11.6773667"></polygon>
                <path d="M49.9526935,26.7824704 C47.9020402,28.1290074 44.7371961,28.0704796 41.748885,28.5980259 C38.8777314,29.06585 36.2994713,30.1197481 36.2994713,33.6326093 C36.2994713,36.6776463 40.1082827,37.496637 42.452228,37.496637 C45.3819603,37.496637 49.9526935,35.9745167 49.9526935,31.7589241 L49.9526935,26.7824704 Z M56.633057,35.2132574 C56.633057,36.8528315 56.9845293,37.496637 58.2150806,37.496637 L58.9180251,37.496637 C59.2113171,37.496637 59.5042106,37.4381093 59.8560814,37.3795815 L59.8560814,42.0048685 C58.8598449,42.3560352 56.7502144,42.7665259 55.6368205,42.7665259 C52.8824258,42.7665259 51.0071102,41.8292852 50.4803003,39.0776833 C47.8434615,41.6541 43.5656219,42.7665259 39.9911253,42.7665259 C34.5413131,42.7665259 29.6195062,39.8385444 29.6195062,33.9252481 C29.6195062,26.3727759 35.654707,25.1432944 41.2798569,24.499887 C46.1434835,23.5626463 50.3627444,24.2064519 50.3627444,20.2253685 C50.3627444,16.7125074 46.7296691,16.1268315 44.0928303,16.1268315 C40.3429961,16.1268315 37.7061573,17.64935 37.4124667,20.9277019 L30.7325017,20.9277019 C31.2011313,13.1411185 37.7643375,10.8577389 44.5028812,10.8577389 C50.4213231,10.8577389 56.633057,13.2581741 56.633057,19.6404889 L56.633057,35.2132574 Z" id="Fill-2" fill="#2C3E50"></path>
                <path d="M61.495807,11.6775259 L67.7657211,11.6775259 L67.7657211,17.5322944 L67.883277,17.5322944 C68.6448002,14.3120722 72.688325,10.8577389 76.7314512,10.8577389 C78.3134748,10.8577389 78.6067668,10.9747944 79.2515311,11.0333222 L79.2515311,17.4733685 C78.3134748,17.2977852 77.3176368,17.1807296 76.3803775,17.1807296 C71.8678246,17.1807296 68.1761705,20.8106463 68.1761705,27.5437296 L68.1761705,41.9463407 L61.495807,41.9463407 L61.495807,11.6775259 Z" id="Fill-4" fill="#2C3E50"></path>
                <path d="M102.748566,26.958213 C102.748566,19.9324907 99.2908285,13.08275 91.5560483,13.08275 C83.5865547,13.08275 80.3635303,19.6983796 80.3635303,26.958213 C80.3635303,34.042463 83.8794482,40.7170185 91.614627,40.7170185 C99.2322498,40.7170185 102.748566,33.8672778 102.748566,26.958213 L102.748566,26.958213 Z M102.806746,35.5060556 L102.689589,35.5060556 C100.169908,40.2483981 96.5368323,42.6488333 91.1459973,42.6488333 C82.0631098,42.6488333 78.1367424,35.2134167 78.1367424,26.958213 C78.1367424,18.0592037 82.4735592,11.150537 91.5560483,11.150537 C96.4786521,11.150537 101.107565,13.8436111 102.689589,18.5859537 L102.806746,18.5859537 L102.806746,0.143333333 L105.033136,0.143333333 L105.033136,41.9468981 L102.806746,41.9468981 L102.806746,35.5060556 Z" id="Fill-6" fill="#2C3E50"></path>
                <path d="M122.202435,40.7168593 C129.702502,40.7168593 133.804606,34.1008315 133.804606,26.8995259 C133.804606,19.6982204 129.702502,13.0825907 122.202435,13.0825907 C114.70197,13.0825907 110.600265,19.6982204 110.600265,26.8995259 C110.600265,34.1008315 114.70197,40.7168593 122.202435,40.7168593 M122.202435,11.1503778 C131.109587,11.1503778 136.031394,18.3516833 136.031394,26.8995259 C136.031394,35.5062944 131.109587,42.6494704 122.202435,42.6494704 C113.294885,42.6494704 108.373477,35.5062944 108.373477,26.8995259 C108.373477,18.3516833 113.294885,11.1503778 122.202435,11.1503778" id="Fill-8" fill="#2C3E50"></path>
                <path d="M149.976792,13.7850833 L143.413586,13.7850833 L143.413586,34.8033241 C143.413586,39.6049907 145.699351,40.1898704 149.918213,40.014287 L149.918213,41.9461019 C145.464638,42.2391389 140.894303,41.5953333 141.186399,34.8033241 L141.186399,13.7850833 L135.620625,13.7850833 L135.620625,11.8532685 L141.186399,11.8532685 L141.186399,2.48524074 L143.413586,2.48524074 L143.413586,11.8532685 L149.976792,11.8532685 L149.976792,13.7850833 Z" id="Fill-10" fill="#2C3E50"></path>
                <path d="M176.000363,27.232338 C176.000363,26.5992824 175.481523,26.0812917 174.847518,26.0812917 L161.61391,26.0812917 C160.980304,26.0812917 160.460667,26.5992824 160.460667,27.232338 L160.460667,40.4556343 C160.460667,41.0882917 160.980304,41.6058843 161.61391,41.6058843 L174.847518,41.6058843 C175.481523,41.6058843 176.000363,41.0882917 176.000363,40.4556343 L176.000363,27.232338 Z M164.675186,36.2443019 C164.675186,36.8781537 165.194823,37.3973389 165.828828,37.3973389 L170.634673,37.3973389 C171.271068,37.3973389 171.788314,36.8781537 171.788314,36.2443019 L171.788314,31.4402463 C171.788314,30.8071907 171.271068,30.2903944 170.634673,30.2903944 L165.828828,30.2903944 C165.194823,30.2903944 164.675186,30.8071907 164.675186,31.4402463 L164.675186,36.2443019 Z" id="Combined-Shape" fill="#328EC7"></path>
                <path d="M153.990908,0.330303704 L153.990908,0.18697037 C153.990908,0.160692593 154.012825,0.143572222 154.039126,0.143572222 L156.304169,0.143572222 L156.304169,0.282525926 C156.304169,0.308405556 156.282252,0.330303704 156.25635,0.330303704 L155.256527,0.330303704 L155.256527,3.35344259 C155.256527,3.37972037 155.234609,3.40122037 155.208309,3.40122037 L155.029385,3.40122037 L155.029385,0.330303704 L153.990908,0.330303704 Z" id="Fill-16" fill="#2C3E50"></path>
                <path d="M159.390828,0.143492593 L159.668579,0.143492593 L159.668579,3.40153889 L159.490452,3.40153889 C159.46455,3.40153889 159.443031,3.37964074 159.443031,3.35376111 L159.443031,0.434538889 C159.443031,0.434538889 158.44281,2.21983519 158.272653,2.51526111 C158.260299,2.53676111 158.229615,2.55427963 158.203713,2.55427963 L158.016819,2.55427963 C157.99012,2.55427963 157.955451,2.53676111 157.943098,2.51526111 L156.777501,0.434538889 L156.777501,3.35376111 C156.777501,3.37964074 156.756381,3.40153889 156.729682,3.40153889 L156.551554,3.40153889 L156.551554,0.143492593 L156.830102,0.143492593 C156.838869,0.143492593 156.859989,0.156631481 156.864373,0.165390741 L158.112458,2.35878889 L159.355761,0.165390741 C159.360543,0.156631481 159.381663,0.143492593 159.390828,0.143492593" id="Fill-18" fill="#2C3E50"></path>
            </g>
        </g>
    </g>
</svg>