<?xml version="1.0" encoding="UTF-8"?>
<svg width="20px" height="16px" viewBox="0 0 20 16" version="1.1" xmlns="http://www.w3.org/2000/svg" xmlns:xlink="http://www.w3.org/1999/xlink">
    <!-- Generator: Sketch 63.1 (92452) - https://sketch.com -->
    <title>email</title>
    <desc>Created with Sketch.</desc>
    <g id="Page-1" stroke="none" stroke-width="1" fill="none" fill-rule="evenodd">
        <path d="M18.2421875,0 L1.7578125,0 C0.789765625,0 0,0.78890625 0,1.7578125 L0,13.4765625 C0,14.4421875 0.78625,15.234375 1.7578125,15.234375 L18.2421875,15.234375 C19.2078125,15.234375 20,14.448125 20,13.4765625 L20,1.7578125 C20,0.7921875 19.21375,0 18.2421875,0 Z M17.9994531,1.171875 L10.0372656,9.13410156 L2.00621094,1.171875 L17.9994531,1.171875 Z M1.171875,13.2339063 L1.171875,1.99488281 L6.81558594,7.59019531 L1.171875,13.2339063 Z M2.00050781,14.0625 L7.64777344,8.41523438 L9.6265625,10.3770312 C9.855625,10.6041406 10.2252734,10.6033984 10.4533984,10.3752344 L12.3828125,8.44582031 L17.9994922,14.0625 L2.00050781,14.0625 Z M18.828125,13.2338672 L13.2114453,7.6171875 L18.828125,2.00046875 L18.828125,13.2338672 Z" id="email" fill="#214BFF" fill-rule="nonzero"></path>
    </g>
</svg>