<?xml version="1.0" encoding="UTF-8"?>
<svg width="20px" height="16px" viewBox="0 0 20 16" version="1.1" xmlns="http://www.w3.org/2000/svg" xmlns:xlink="http://www.w3.org/1999/xlink">
    <!-- Generator: Sketch 63.1 (92452) - https://sketch.com -->
    <title>email (1)</title>
    <desc>Created with Sketch.</desc>
    <g id="Page-1" stroke="none" stroke-width="1" fill="none" fill-rule="evenodd">
        <g id="email-(1)" fill="#214BFF" fill-rule="nonzero">
            <path d="M18.2421875,0 L1.7578125,0 C1.48722656,0 1.23390625,0.0665234375 1.00472656,0.176171875 L9.9609375,9.13238281 L11.9683203,7.20320312 C11.9683203,7.20320312 11.9684766,7.20300781 11.9685156,7.20292969 C11.9685547,7.20285156 11.9687109,7.20277344 11.9687109,7.20277344 L18.9955469,0.176328125 C18.7663281,0.0666015625 18.5128516,0 18.2421875,0 Z" id="Path"></path>
            <path d="M19.8240625,1.005 L13.2114453,7.61726562 L19.8238281,14.2296484 C19.9334766,14.0004687 20,13.7471484 20,13.4765625 L20,1.7578125 C20,1.48738281 19.9336328,1.23410156 19.8240625,1.005 Z" id="Path"></path>
            <path d="M0.176171875,1.00472656 C0.0665234375,1.23390625 0,1.48722656 0,1.7578125 L0,13.4765625 C0,13.7469922 0.0664453125,14.0003516 0.176015625,14.2294531 L6.78863281,7.6171875 L0.176171875,1.00472656 Z" id="Path"></path>
            <path d="M12.3828906,8.44582031 L10.3752344,10.3752344 C10.2607812,10.4896875 10.1108594,10.5469141 9.96097656,10.5469141 C9.81109375,10.5469141 9.66113281,10.4896875 9.54671875,10.3752344 L7.6171875,8.44574219 L1.00445312,15.0580469 C1.23367187,15.1677734 1.48714844,15.234375 1.7578125,15.234375 L18.2421875,15.234375 C18.5127734,15.234375 18.7660937,15.1678516 18.9952734,15.0582031 L12.3828906,8.44582031 Z" id="Path"></path>
        </g>
    </g>
</svg>