<svg xmlns="http://www.w3.org/2000/svg" width="34" height="32" viewBox="0 0 34 32">
    <g fill="none">
        <path fill="#ECEFF1" d="M32.938 27.871H18.062c-.586 0-1.062-.473-1.062-1.056V5.701c0-.583.476-1.056 1.063-1.056h14.875c.586 0 1.062.473 1.062 1.056v21.114c0 .583-.476 1.056-1.063 1.056z"/>
        <g fill="#388E3C">
            <path d="M5.366 2.13H1.073C.481 2.13 0 1.652 0 1.064 0 .478.48.001 1.073.001h4.293C5.96 0 6.44.478 6.44 1.065c0 .588-.48 1.064-1.073 1.064zM5.366 6.387H1.073C.481 6.387 0 5.91 0 5.323c0-.588.48-1.065 1.073-1.065h4.293c.593 0 1.073.477 1.073 1.065 0 .587-.48 1.064-1.073 1.064zM5.366 10.644H1.073C.481 10.644 0 10.168 0 9.58c0-.587.48-1.064 1.073-1.064h4.293c.593 0 1.073.477 1.073 1.064 0 .588-.48 1.064-1.073 1.064zM5.366 14.902H1.073C.481 14.902 0 14.425 0 13.838c0-.588.48-1.065 1.073-1.065h4.293c.593 0 1.073.477 1.073 1.065 0 .587-.48 1.064-1.073 1.064zM11.806 2.13H9.659c-.592 0-1.073-.477-1.073-1.065 0-.587.48-1.064 1.073-1.064h2.147c.592 0 1.073.477 1.073 1.064 0 .588-.481 1.064-1.073 1.064zM11.806 6.387H9.659c-.592 0-1.073-.477-1.073-1.064 0-.588.48-1.065 1.073-1.065h2.147c.592 0 1.073.477 1.073 1.065 0 .587-.481 1.064-1.073 1.064zM11.806 10.644H9.659c-.592 0-1.073-.476-1.073-1.064 0-.587.48-1.064 1.073-1.064h2.147c.592 0 1.073.477 1.073 1.064 0 .588-.481 1.064-1.073 1.064zM11.806 14.902H9.659c-.592 0-1.073-.477-1.073-1.064 0-.588.48-1.065 1.073-1.065h2.147c.592 0 1.073.477 1.073 1.065 0 .587-.481 1.064-1.073 1.064z" transform="translate(17 8.774)"/>
        </g>
        <path fill="#2E7D32" d="M18.677.247c-.241-.203-.565-.29-.87-.226L.864 3.22C.362 3.313 0 3.753 0 4.267v23.466c0 .512.362.953.864 1.047l16.943 3.2c.063.013.129.019.195.019.245 0 .485-.085.675-.245.244-.203.384-.506.384-.822V1.068c0-.318-.14-.619-.384-.821z"/>
        <path fill="#FAFAFA" d="M14.67 19.372l-3.439-3.9 3.478-4.439c.37-.47.283-1.148-.19-1.515-.471-.367-1.154-.28-1.526.188l-3.22 4.11-2.715-3.078c-.398-.454-1.085-.495-1.533-.102-.453.393-.499 1.075-.103 1.522l2.99 3.393-3.031 3.868c-.37.47-.283 1.149.19 1.516.2.153.436.226.67.226.323 0 .643-.142.858-.416l2.773-3.54 3.162 3.585c.216.246.516.371.818.371.255 0 .51-.088.716-.267.452-.393.498-1.075.102-1.522z"/>
    </g>
</svg>
