<?xml version="1.0" encoding="UTF-8"?>
<svg width="19px" height="11px" viewBox="0 0 19 11" version="1.1" xmlns="http://www.w3.org/2000/svg" xmlns:xlink="http://www.w3.org/1999/xlink">
    <!-- Generator: Sketch 63.1 (92452) - https://sketch.com -->
    <title>noun_Eye_2165494</title>
    <desc>Created with Sketch.</desc>
    <g id="Page-1" stroke="none" stroke-width="1" fill="none" fill-rule="evenodd">
        <g id="noun_Eye_2165494" fill="#214BFF" fill-rule="nonzero">
            <path d="M9.5,10.925 C13.0497561,10.8766756 16.3181699,8.98329937 18.126,5.928 C18.202,5.7855 18.202,5.6145 18.126,5.472 C16.3181699,2.41670063 13.0497561,0.523324353 9.5,0.475 C4.56,0.475 1.0545,5.225 0.95,5.4245 C0.826489651,5.58740241 0.826489651,5.81259759 0.95,5.9755 C1.0545,6.1845 4.56,10.925 9.5,10.925 Z M9.5,1.425 C12.6018336,1.48823482 15.4688215,3.09089888 17.1475,5.7 C15.4829067,8.30038901 12.634194,9.9027899 9.5475,9.975 C5.7,9.975 2.717,6.65 1.9,5.7 C2.717,4.75 5.7,1.425 9.5,1.425 Z" id="Shape"></path>
            <path d="M9.5,8.9205 C11.278633,8.9205 12.7205,7.47863304 12.7205,5.7 C12.7205,3.92136696 11.278633,2.4795 9.5,2.4795 C7.72136696,2.4795 6.2795,3.92136696 6.2795,5.7 C6.2795,7.47863304 7.72136696,8.9205 9.5,8.9205 L9.5,8.9205 Z M9.5,3.4295 C10.7539625,3.4295 11.7705,4.44603748 11.7705,5.7 C11.7705,6.95396252 10.7539625,7.9705 9.5,7.9705 C8.24603748,7.9705 7.2295,6.95396252 7.2295,5.7 C7.2295,4.44603748 8.24603748,3.4295 9.5,3.4295 Z" id="Shape"></path>
        </g>
    </g>
</svg>