<?xml version="1.0" encoding="UTF-8" standalone="no"?>
<svg width="100px" height="100px" viewBox="0 0 150 150" version="1.1" xmlns="http://www.w3.org/2000/svg" xmlns:xlink="http://www.w3.org/1999/xlink">
    <!-- Generator: Sketch 50 (54983) - http://www.bohemiancoding.com/sketch -->
    <title>Group 78</title>
    <desc>Created with Sketch.</desc>
    <defs></defs>
    <g id="Designs" stroke="none" stroke-width="1" fill="none" fill-rule="evenodd">
        <g id="Group-78">
            <g id="Group-72">
                <g id="Group-71">
                    <rect id="Rectangle-32" fill="#4285F4" x="0" y="0" width="150" height="150"></rect>
                    <g id="Fill-1-+-Fill-3-+-Fill-5" transform="translate(30.000000, 29.000000)" fill="#FFFFFF">
                        <g id="Fill-3-+-Fill-5">
                            <path d="M0.625514616,43.5746974 C1.01706945,20.2694276 22.5541329,-0.141351378 45.9808739,0.636158119 C57.204414,0.11884487 67.7562751,4.97789432 76.3534573,11.803042 C72.6855325,15.9507858 68.8860578,19.9461069 64.8250306,23.6827713 C54.4913879,16.5758726 39.7918314,14.5466498 29.4581886,22.7543788 C14.6719638,32.9266664 14.0002848,56.9447816 28.2200706,67.8945787 C42.0498491,80.3793797 68.191164,74.1793188 72.0123059,55.0649022 C63.3485748,54.9355738 54.6647244,55.0649022 46.002541,54.7846908 C45.9808739,49.6438904 45.9592069,44.50309 45.9808739,39.3622896 C60.4622121,39.3191801 74.9435503,39.2976254 89.4465556,39.4069386 C90.3147859,51.5006755 88.7083277,64.3734614 81.2393806,74.3748509 C69.9276246,90.2067918 47.2174443,94.8287393 29.5015227,88.0467011 C11.7206,81.3077722 -0.87260822,62.6244499 0.625514616,43.5746974" id="Fill-3"></path>
                        </g>
                    </g>
                </g>
            </g>
        </g>
    </g>
</svg>
