<?xml version="1.0" encoding="UTF-8"?>
<svg width="20px" height="18px" viewBox="0 0 20 18" version="1.1" xmlns="http://www.w3.org/2000/svg" xmlns:xlink="http://www.w3.org/1999/xlink">
    <!-- Generator: Sketch 63.1 (92452) - https://sketch.com -->
    <title>like (1)</title>
    <desc>Created with Sketch.</desc>
    <g id="Page-1" stroke="none" stroke-width="1" fill="none" fill-rule="evenodd">
        <g id="like-(1)" fill="#214BFF" fill-rule="nonzero">
            <path d="M14.6875,0 C13.6022266,0 12.6072266,0.34390625 11.7301953,1.0221875 C10.889375,1.67246094 10.3295703,2.50070312 10,3.10296875 C9.67042969,2.50066406 9.110625,1.67246094 8.26980469,1.0221875 C7.39277344,0.34390625 6.39777344,0 5.3125,0 C2.28390625,0 0,2.47722656 0,5.76226563 C0,9.31125 2.84933594,11.7394141 7.16285156,15.4153125 C7.89535156,16.0395703 8.725625,16.7471484 9.58859375,17.5017969 C9.70234375,17.6014063 9.8484375,17.65625 10,17.65625 C10.1515625,17.65625 10.2976562,17.6014063 10.4114062,17.5018359 C11.2744531,16.7470703 12.1046875,16.0395312 12.8376172,15.4149219 C17.1506641,11.7394141 20,9.31125 20,5.76226563 C20,2.47722656 17.7160937,0 14.6875,0 Z" id="Path"></path>
        </g>
    </g>
</svg>