<?xml version="1.0" encoding="UTF-8"?>
<svg width="20px" height="18px" viewBox="0 0 20 18" version="1.1" xmlns="http://www.w3.org/2000/svg" xmlns:xlink="http://www.w3.org/1999/xlink">
    <!-- Generator: Sketch 63.1 (92452) - https://sketch.com -->
    <title>like</title>
    <desc>Created with Sketch.</desc>
    <g id="Page-1" stroke="none" stroke-width="1" fill="none" fill-rule="evenodd">
        <g id="like" fill="#214BFF" fill-rule="nonzero">
            <path d="M18.5407813,1.76835938 C17.5543359,0.6490625 16.1858594,0.03265625 14.6875,0.03265625 C12.5801563,0.03265625 11.2459766,1.29125 10.4978516,2.34710938 C10.30375,2.62109375 10.1386328,2.89582031 10,3.15433594 C9.86136719,2.89582031 9.69628906,2.62109375 9.50214844,2.34710938 C8.75402344,1.29125 7.41984375,0.03265625 5.3125,0.03265625 C3.81414062,0.03265625 2.44566406,0.649101563 1.45917969,1.76839844 C0.518242187,2.83613281 0,4.26613281 0,5.79496094 C0,7.45914062 0.649726562,9.00699219 2.04472656,10.6660547 C3.29148438,12.1488672 5.08511719,13.6773047 7.16210938,15.4471875 C7.93605469,16.1067187 8.73640625,16.78875 9.58847656,17.5342578 L9.6140625,17.5566797 C9.72453125,17.6533984 9.86226563,17.7017187 10,17.7017187 C10.1377344,17.7017187 10.2754688,17.6533594 10.3859375,17.5566797 L10.4115234,17.5342578 C11.2635937,16.78875 12.0639453,16.1067578 12.8380078,15.4471094 C14.9148828,13.6773437 16.7085156,12.1489062 17.9552734,10.6660547 C19.3502734,9.00695312 20,7.45914062 20,5.79496094 C20,4.26613281 19.4817578,2.83613281 18.5407813,1.76835938 Z M12.0778516,14.5552344 C11.4106641,15.12375 10.7240234,15.7088672 10,16.3382812 C9.27601563,15.7089453 8.58933594,15.1237891 7.92203125,14.5551562 C3.85722656,11.0913672 1.171875,8.80304687 1.171875,5.79496094 C1.171875,4.55160156 1.58613281,3.39675781 2.33835937,2.54320312 C3.09921875,1.67996094 4.15542969,1.20453125 5.3125,1.20453125 C6.91910156,1.20453125 7.95765625,2.19429688 8.5459375,3.02460938 C9.07363281,3.76929687 9.34898438,4.52 9.44289063,4.80816406 C9.52144531,5.049375 9.74632812,5.21261719 10,5.21261719 C10.2536719,5.21261719 10.4785547,5.049375 10.5571094,4.80816406 C10.6510156,4.52 10.9263672,3.76929687 11.4540625,3.02457031 C12.0423438,2.19429688 13.0808984,1.20453125 14.6875,1.20453125 C15.8445703,1.20453125 16.9007812,1.67996094 17.6616016,2.54320312 C18.4138672,3.39675781 18.828125,4.55160156 18.828125,5.79496094 C18.828125,8.80304687 16.1427734,11.0913672 12.0778516,14.5552344 Z" id="Shape"></path>
        </g>
    </g>
</svg>