<svg xmlns="http://www.w3.org/2000/svg" width="27" height="32" viewBox="0 0 27 32">
    <g fill="none">
        <path fill="#E2574C" d="M1.929 0h16.386L27 8.875v20.802c0 1.093-.864 1.978-1.929 1.978H1.93C.864 31.655 0 30.77 0 29.677V1.978C0 .885.864 0 1.929 0z"/>
        <path fill="#B53629" d="M27 8.38h-7.235c-1.146 0-2.075-.837-2.075-1.867V0L27 8.38z"/>
        <path fill="#FFF" d="M20.018 15.04c.312 0 .465-.273.465-.537 0-.274-.16-.537-.465-.537H18.24c-.348 0-.542.288-.542.606v4.373c0 .39.222.607.522.607.298 0 .521-.217.521-.607v-1.2h1.075c.334 0 .5-.273.5-.545 0-.265-.166-.53-.5-.53h-1.075v-1.63h1.277zm-6.01-1.074h-1.301c-.353 0-.604.242-.604.602v4.381c0 .447.36.587.619.587h1.365c1.616 0 2.683-1.064 2.683-2.707 0-1.737-1.005-2.863-2.762-2.863zm.062 4.49h-.793v-3.41h.715c1.082 0 1.553.726 1.553 1.729 0 .938-.463 1.68-1.475 1.68zm-4.765-4.49h-1.29c-.364 0-.567.24-.567.606v4.373c0 .39.233.607.546.607.313 0 .546-.217.546-.607v-1.277h.808c.997 0 1.82-.707 1.82-1.844 0-1.112-.794-1.858-1.863-1.858zm-.022 2.677H8.54v-1.65h.743c.459 0 .75.358.75.825 0 .466-.291.825-.75.825z"/>
    </g>
</svg>
