<svg xmlns="http://www.w3.org/2000/svg" width="34" height="32" viewBox="0 0 34 32">
    <g fill="none">
        <path fill="#ECEFF1" d="M32.93 4.316H18.057c-.586 0-1.062.476-1.062 1.062v21.245c0 .586.476 1.062 1.062 1.062H32.93c.587 0 1.063-.476 1.063-1.062V5.378c0-.586-.476-1.062-1.063-1.062z"/>
        <g fill="#F57C00">
            <path d="M11.685 16.997H1.062C.476 16.997 0 16.52 0 15.934c0-.586.476-1.062 1.062-1.062h10.623c.586 0 1.062.476 1.062 1.062 0 .587-.476 1.063-1.062 1.063zM6.373 2.125c-2.933 0-5.31 2.378-5.31 5.311 0 2.934 2.377 5.312 5.31 5.312 2.934 0 5.312-2.378 5.312-5.312H6.373v-5.31z" transform="translate(16.996 6.44)"/>
            <path d="M8.498 0v5.312h5.311C13.81 2.378 11.432 0 8.498 0z" transform="translate(16.996 6.44)"/>
        </g>
        <path fill="#EF6C00" d="M18.736.246c-.242-.202-.567-.29-.873-.225L.867 3.207C.363 3.301 0 3.738 0 4.25v23.37c0 .51.363.95.867 1.043l16.996 3.187c.063.012.13.019.195.019.247 0 .487-.085.678-.245.244-.201.384-.503.384-.818V1.064c0-.317-.14-.616-.384-.818z"/>
        <path fill="#FAFAFA" d="M7.436 23.436c-.587 0-1.063-.475-1.063-1.062V11.752c0-.587.476-1.062 1.063-1.062h3.186c2.344 0 4.25 1.905 4.25 4.248 0 2.344-1.906 4.25-4.25 4.25H8.498v3.186c0 .587-.476 1.062-1.062 1.062zm1.062-6.373h2.124c1.171 0 2.125-.954 2.125-2.125 0-1.17-.954-2.124-2.125-2.124H8.498v4.249z"/>
    </g>
</svg>
