<?xml version="1.0" encoding="UTF-8"?>
<svg width="20px" height="19px" viewBox="0 0 20 19" version="1.1" xmlns="http://www.w3.org/2000/svg" xmlns:xlink="http://www.w3.org/1999/xlink">
    <!-- Generator: Sketch 63.1 (92452) - https://sketch.com -->
    <title>printing (1)</title>
    <desc>Created with Sketch.</desc>
    <g id="Page-1" stroke="none" stroke-width="1" fill="none" fill-rule="evenodd">
        <g id="printing-(1)" fill="#214BFF" fill-rule="nonzero">
            <path d="M18.4444531,4.52761719 L16.3232422,4.52761719 L16.3232422,0.66921875 C16.3232422,0.301054687 16.0247656,0.0025390625 15.6565625,0.0025390625 L4.3434375,0.0025390625 C3.97527344,0.0025390625 3.67675781,0.301015625 3.67675781,0.66921875 L3.67675781,4.52761719 L1.55554688,4.52761719 C0.6978125,4.52761719 0,5.22546875 0,6.08320312 L0,12.7903125 C0,13.6480469 0.6978125,14.3458594 1.55554688,14.3458594 L3.676875,14.3458594 L3.676875,17.9245313 C3.676875,18.2926953 3.97535156,18.5912109 4.34355469,18.5912109 L15.6564453,18.5912109 C16.0246094,18.5912109 16.323125,18.2927344 16.323125,17.9245313 L16.323125,14.3458594 L18.4444531,14.3458594 C19.3021875,14.3458594 20,13.6480469 20,12.7903125 L20,6.08320312 C20,5.22550781 19.3021875,4.52761719 18.4444531,4.52761719 Z M5.01007812,1.33589844 L14.9898828,1.33589844 L14.9898828,4.52761719 L5.01007812,4.52761719 L5.01007812,1.33589844 Z M14.9898047,17.2578516 L5.01023437,17.2578516 C5.01023437,17.1275781 5.01023437,11.9647656 5.01023437,11.8036328 L14.9898047,11.8036328 C14.9898047,11.9688281 14.9898047,17.1325781 14.9898047,17.2578516 Z M18.6666797,12.7903516 C18.6666797,12.9128906 18.5669922,13.0125781 18.4444531,13.0125781 L16.323125,13.0125781 L16.323125,11.1370313 C16.323125,10.7688672 16.0246484,10.4703516 15.6564453,10.4703516 L4.34355469,10.4703516 C3.97539062,10.4703516 3.676875,10.7688281 3.676875,11.1370313 L3.676875,13.0125781 L1.55554687,13.0125781 C1.43300781,13.0125781 1.33332031,12.9128906 1.33332031,12.7903516 L1.33332031,6.08324219 C1.33332031,5.96070313 1.43300781,5.86101563 1.55554687,5.86101563 C2.06703125,5.86101563 17.945,5.86101563 18.4444531,5.86101563 C18.5669922,5.86101563 18.6666797,5.96070313 18.6666797,6.08324219 L18.6666797,12.7903516 Z" id="Shape"></path>
            <path d="M15.6565625,7.10890625 L13.9595703,7.10890625 C13.5914063,7.10890625 13.2928906,7.40738281 13.2928906,7.77558594 C13.2928906,8.14378906 13.5913672,8.44226563 13.9595703,8.44226563 L15.6565625,8.44226563 C16.0247266,8.44226563 16.3232422,8.14378906 16.3232422,7.77558594 C16.3232422,7.40738281 16.0247656,7.10890625 15.6565625,7.10890625 Z" id="Path"></path>
            <path d="M12.8889062,14.9153906 L7.11109375,14.9153906 C6.74292969,14.9153906 6.44441406,15.2138672 6.44441406,15.5820703 C6.44441406,15.9502734 6.74289062,16.24875 7.11109375,16.24875 L12.8888672,16.24875 C13.2570313,16.24875 13.5555469,15.9502734 13.5555469,15.5820703 C13.5555469,15.2138672 13.2570703,14.9153906 12.8889062,14.9153906 Z" id="Path"></path>
            <path d="M12.8889062,12.8127344 L7.11109375,12.8127344 C6.74292969,12.8127344 6.44441406,13.1112109 6.44441406,13.4794141 C6.44441406,13.8476172 6.74289062,14.1460937 7.11109375,14.1460937 L12.8888672,14.1460937 C13.2570313,14.1460937 13.5555469,13.8476172 13.5555469,13.4794141 C13.5555469,13.1112109 13.2570703,12.8127344 12.8889062,12.8127344 Z" id="Path"></path>
        </g>
    </g>
</svg>