<svg xmlns="http://www.w3.org/2000/svg" width="463" height="456" viewBox="0 0 463 456">
    <defs>
        <linearGradient id="prefix__a" x1="50.659%" x2="50.659%" y1="86.665%" y2="5.712%">
            <stop offset="0%" stop-color="#2D0979"/>
            <stop offset="100%" stop-color="#5B04F7"/>
        </linearGradient>
        <linearGradient id="prefix__b" x1="43.667%" x2="55.183%" y1="40.525%" y2="49.778%">
            <stop offset="0%" stop-color="#3919BB"/>
            <stop offset="100%" stop-color="#6507FA"/>
        </linearGradient>
    </defs>
    <g fill="none">
        <path fill="#173D7A" d="M255.695 408.053L79.365 306.289c-4.986-2.885-4.358-7.906 1.4-11.238l120.072-69.295c5.757-3.331 14.483-3.693 19.456-.809L396.636 326.76c4.985 2.873 4.357 7.906-1.4 11.225l-120.073 69.308c-5.757 3.283-14.471 3.633-19.468.76z" opacity=".5"/>
        <path fill="#173D7A" d="M454.704 110.29L265.454 1.18c-1.912-1.204-4.259-1.504-6.413-.82l-.35.133h-.084l-6.835 2.613 6.136 2.999c0 .108-.06.216-.084.337L224.397 158.36c-1.542 7.02 1.543 15.209 6.895 18.292l184.706 106.533-.663 7.815 7.474-2.89c2.507-1.204 4.52-3.83 5.352-7.61l33.438-151.907c1.543-6.996-1.495-15.209-6.895-18.303z"/>
        <path fill="#396CAA" d="M455.015 110.502L265.565 1.182c-1.914-1.206-4.263-1.507-6.42-.82l-.35.132h-.084l-6.842 2.618 6.142 3.004c0 .109-.06.218-.084.338L235 110.78 327.685 183 461 118.055c-1.091-3.118-3.2-5.778-5.985-7.553z"/>
        <path fill="#274F89" d="M448.404 132l14.575-6.255c.268-5.689-2.073-11.562-5.903-14.745L434 120.83 448.404 132z"/>
        <path fill="#D4ECFF" d="M409.656 290.81L220.304 181.22c-5.367-3.095-8.442-11.316-6.91-18.365L246.85 10.32c1.543-7.037 7.14-10.241 12.494-7.134l189.353 109.589c5.355 3.107 8.442 11.329 6.91 18.365L422.14 283.676c-1.543 7.06-7.128 10.24-12.483 7.133z"/>
        <path fill="#FFF" d="M449.714 112.84L260.45 3.168c-2.249-1.431-5.085-1.555-7.45-.327 1.934-.399 3.947-.044 5.63.992l189.264 109.672c5.352 3.11 8.438 11.338 6.907 18.38l-33.453 152.65c-.495 3.11-2.335 5.843-5.027 7.465 3.195-.702 5.86-3.63 6.848-8.131l33.428-152.65c1.555-7.042-1.53-15.282-6.883-18.38z"/>
        <path fill="#FFF" d="M404.438 279.926L226.672 177.339c-4.9-2.83-7.718-10.318-6.31-16.735l30.786-140.016c1.409-6.417 6.514-9.33 11.414-6.514l177.766 102.623c4.9 2.83 7.718 10.318 6.31 16.735l-30.786 139.98c-1.409 6.417-6.514 9.33-11.414 6.514z"/>
        <path fill="#173D7A" d="M404.438 279.926L226.672 177.339c-4.9-2.83-7.718-10.318-6.31-16.735l30.786-140.016c1.409-6.417 6.514-9.33 11.414-6.514l177.766 102.623c4.9 2.83 7.718 10.318 6.31 16.735l-30.786 139.98c-1.409 6.417-6.514 9.33-11.414 6.514z"/>
        <path fill="#5793CE" d="M406.629 279.29L229.197 176.61c-4.879-2.82-7.703-10.327-6.285-16.75l30.762-140.11c.457-2.789 2.084-5.246 4.47-6.749-2.812.723-5.131 3.362-6.008 7.387l-30.774 140.11c-1.406 6.423 1.406 13.919 6.297 16.75l177.42 102.683c2.092 1.335 4.742 1.427 6.921.24-1.836.437-3.77.12-5.371-.88z"/>
        <path fill="#173D7A" d="M411.995 294.976l-25.887-3.412-167.107-96.47c-5.356-3.099-14.716-2.713-20.905.856L79.687 264.311l-15.681-2.062v8.875c-.097 2.05 1.073 4.028 3.618 5.487l189.387 109.3c5.356 3.099 14.717 2.701 20.905-.868l128.965-74.39c3.486-2.002 5.223-4.595 5.114-7.018v-8.659z"/>
        <path fill="#396CAA" d="M286 233.856L274.153 227H143.875l-64.218 37.154-15.652-2.064v8.884c-.096 2.052 1.072 4.032 3.612 5.492l189.019 109.41c3.32 1.693 7.056 2.397 10.763 2.029L286 233.856z"/>
        <path fill="#5793CE" d="M71.988 262.956L65.006 262v9.261c-.097 2.14 1.078 4.203 3.636 5.726L72 279l-.012-16.044z"/>
        <path fill="#274F89" d="M259 387.826c5.597 1.884 11.672 1.49 17-1.105V367h-17v20.826z"/>
        <path fill="#D4ECFF" d="M257.012 376.926L67.614 268.062c-5.356-3.074-4.68-8.406 1.508-12.009l128.96-74.097c6.188-3.602 15.55-3.939 20.906-.864l189.398 108.851c5.356 3.086 4.68 8.466-1.508 12.01l-128.96 74.096c-6.188 3.567-15.55 3.95-20.906.877z"/>
        <path fill="#FFF" d="M406.895 298.888l-128.97 74.854c-6.19 3.64-15.551 3.98-20.908.873L67.603 264.64c-1.508-.773-2.69-2.065-3.33-3.64-.833 2.56.23 5.132 3.33 6.927l189.414 109.976c5.357 3.106 14.719 2.718 20.908-.873l128.97-74.854c4.163-2.427 5.816-5.666 4.826-8.493-.934 2.262-2.647 4.11-4.826 5.205z"/>
        <path fill="#5793CE" d="M148.245 231.741l-8.77-4.967c-.703-.399-.617-1.088.198-1.547l10.348-5.85c.843-.461 1.86-.501 2.738-.109l8.77 4.956c.703.399.604 1.087-.197 1.547l-10.349 5.85c-.843.459-1.857.504-2.738.12zM161.245 239.732l-8.77-4.952c-.703-.398-.617-1.099.198-1.558l10.348-5.845c.843-.461 1.86-.501 2.738-.109l8.77 4.952c.703.398.604 1.099-.197 1.558l-10.349 5.845c-.843.461-1.86.501-2.738.109zM174.245 246.733l-8.77-4.954c-.703-.4-.617-1.088.198-1.547l10.348-5.848c.841-.465 1.858-.51 2.738-.121l8.77 4.954c.703.399.604 1.1-.197 1.559l-10.398 5.872c-.834.437-1.828.469-2.69.085zM192.117 240.733l-8.652-4.928c-.694-.396-.597-1.081.194-1.538l8.519-4.892c.836-.459 1.842-.499 2.713-.108l8.64 4.928c.694.396.609 1.094-.195 1.55l-8.518 4.88c-.832.459-1.835.499-2.701.108zM206.117 248.743l-8.652-4.941c-.694-.385-.597-1.082.194-1.54l8.519-4.88c.834-.463 1.84-.508 2.713-.12l8.64 4.929c.694.396.609 1.094-.195 1.55l-8.518 4.882c-.831.456-1.832.501-2.701.12zM219.117 256.733l-8.652-4.928c-.694-.396-.597-1.093.194-1.55l8.519-4.88c.836-.459 1.842-.499 2.713-.108l8.64 4.928c.694.396.609 1.082-.195 1.538l-8.518 4.892c-.832.459-1.835.499-2.701.108zM232.116 263.733l-8.641-4.928c-.706-.396-.609-1.081.183-1.538l8.519-4.892c.836-.459 1.843-.499 2.713-.108l8.641 4.928c.694.396.609 1.094-.195 1.55l-8.519 4.88c-.831.459-1.835.499-2.701.108zM246.116 270.739l-8.641-4.93c-.706-.397-.609-1.094.183-1.551l8.519-4.882c.836-.455 1.84-.5 2.713-.12l8.641 4.942c.694.396.609 1.082-.195 1.539l-8.519 4.881c-.83.463-1.833.508-2.701.12zM259.116 279.733l-8.641-4.928c-.706-.396-.609-1.093.183-1.55l8.519-4.88c.836-.459 1.843-.499 2.713-.108l8.641 4.928c.694.396.609 1.082-.195 1.538l-8.519 4.892c-.831.459-1.835.499-2.701.108zM271.11 286.73l-8.636-4.926c-.706-.397-.609-1.082.194-1.538l8.515-4.891c.835-.459 1.842-.499 2.712-.108l8.636 4.926c.694.397.609 1.094-.194 1.55l-8.515 4.88c-.834.462-1.843.502-2.712.107zM285.107 294.731l-8.638-4.927c-.694-.396-.609-1.093.194-1.55l8.517-4.879c.836-.459 1.842-.499 2.713-.108l8.638 4.927c.694.396.609 1.081-.194 1.538l-8.517 4.88c-.831.471-1.842.516-2.713.12zM298.107 301.73l-8.638-4.926c-.694-.397-.609-1.082.194-1.55l8.517-4.879c.836-.459 1.842-.499 2.713-.108l8.638 4.926c.694.397.609 1.082-.194 1.539l-8.517 4.89c-.835.463-1.843.503-2.713.108zM312.107 309.73l-8.638-4.926c-.694-.397-.609-1.082.194-1.538l8.517-4.891c.836-.459 1.842-.499 2.713-.108l8.638 4.926c.694.397.609 1.094-.194 1.55l-8.517 4.88c-.835.462-1.843.502-2.713.107zM212.109 236.733l-8.64-4.928c-.694-.396-.609-1.082.195-1.538l8.518-4.892c.832-.459 1.835-.499 2.701-.108l8.652 4.928c.694.396.597 1.093-.194 1.55l-8.519 4.88c-.836.459-1.842.499-2.713.108zM199.117 229.743l-8.652-4.941c-.694-.397-.597-1.082.194-1.54l8.519-4.88c.834-.463 1.84-.508 2.713-.12l8.64 4.929c.694.396.609 1.094-.195 1.55l-8.518 4.882c-.831.456-1.832.501-2.701.12zM185.49 221.749l-18.036-10.21c-.672-.382-.59-1.04.189-1.479l8.251-4.69c.802-.45 1.777-.492 2.617-.115l18.035 10.21c.672.382.59 1.04-.189 1.479l-8.251 4.69c-.804.444-1.776.487-2.617.115zM194.87 213.701l-15.392-9.32c-.707-.43-.62-1.186.198-1.682l8.682-5.292c.852-.498 1.879-.541 2.766-.118l15.392 9.347c.72.43.62 1.173-.186 1.669l-8.682 5.292c-.857.498-1.89.537-2.778.104zM225.109 244.734l-8.64-4.928c-.694-.397-.609-1.094.195-1.55l8.518-4.881c.832-.459 1.835-.499 2.701-.108l8.652 4.928c.694.397.597 1.082-.194 1.539l-8.519 4.88c-.832.468-1.842.513-2.713.12zM238.109 252.733l-8.64-4.928c-.694-.396-.609-1.094.195-1.55l8.518-4.88c.832-.459 1.835-.499 2.701-.108l8.652 4.928c.694.396.597 1.081-.194 1.538l-8.519 4.892c-.836.459-1.842.499-2.713.108zM251.109 259.733l-8.64-4.928c-.694-.396-.609-1.082.195-1.538l8.518-4.892c.832-.459 1.835-.499 2.701-.108l8.652 4.928c.694.396.597 1.093-.194 1.55l-8.519 4.88c-.836.459-1.842.499-2.713.108zM265.109 267.733l-8.64-4.928c-.694-.396-.609-1.094.195-1.55l8.518-4.88c.832-.459 1.835-.499 2.701-.108l8.652 4.928c.694.396.597 1.081-.194 1.538l-8.519 4.892c-.836.459-1.842.499-2.713.108zM278.109 275.733l-8.64-4.928c-.694-.396-.609-1.082.195-1.538l8.518-4.892c.832-.459 1.835-.499 2.701-.108l8.652 4.928c.694.396.597 1.093-.194 1.55l-8.519 4.88c-.836.459-1.842.499-2.713.108zM292.107 282.744l-8.638-4.942c-.694-.396-.609-1.082.194-1.539l8.517-4.881c.83-.463 1.833-.508 2.7-.12l8.651 4.93c.694.396.609 1.093-.194 1.55l-8.517 4.882c-.836.455-1.84.5-2.713.12zM305.107 290.733l-8.638-4.928c-.694-.396-.609-1.094.194-1.55l8.517-4.88c.832-.459 1.834-.499 2.7-.108l8.651 4.928c.694.396.609 1.081-.194 1.538l-8.517 4.892c-.836.459-1.842.499-2.713.108zM317.107 298.733l-8.638-4.928c-.694-.396-.609-1.082.194-1.538l8.517-4.892c.832-.459 1.834-.499 2.7-.108l8.651 4.928c.694.396.609 1.093-.194 1.55l-8.517 4.88c-.836.459-1.842.499-2.713.108zM331.107 305.739l-8.638-4.94c-.694-.384-.609-1.081.194-1.538l8.517-4.88c.83-.462 1.833-.506 2.7-.12l8.651 4.94c.694.384.609 1.081-.194 1.538l-8.517 4.88c-.834.462-1.84.506-2.713.12zM354.572 319.752l-18.122-10.26c-.666-.38-.584-1.044.187-1.48l8.184-4.654c.804-.438 1.77-.476 2.607-.103l18.122 10.249c.666.378.584 1.043-.187 1.479l-8.184 4.654c-.802.44-1.769.482-2.607.115zM380.802 304.719l-16.321-9.554c-.712-.418-.624-1.139.2-1.62l8.734-5.15c.853-.483 1.882-.525 2.77-.114l16.334 9.554c.712.418.624 1.152-.2 1.632l-8.734 5.138c-.857.483-1.89.525-2.783.114zM248.107 243.733l-8.638-4.928c-.694-.396-.609-1.094.194-1.55l8.517-4.88c.832-.459 1.834-.499 2.7-.108l8.651 4.928c.694.396.609 1.081-.194 1.538l-8.517 4.892c-.836.459-1.842.499-2.713.108zM236.107 235.738l-8.638-4.93c-.694-.396-.609-1.093.194-1.55l8.517-4.882c.836-.455 1.84-.5 2.713-.12l8.638 4.942c.694.396.609 1.082-.194 1.539l-8.517 4.881c-.834.463-1.84.508-2.713.12zM222.12 227.743l-8.651-4.941c-.694-.397-.609-1.082.194-1.54l8.517-4.88c.834-.463 1.84-.508 2.713-.12l8.638 4.929c.694.396.609 1.094-.194 1.55l-8.517 4.882c-.831.456-1.831.501-2.7.12zM208.102 219.74l-8.634-4.93c-.693-.397-.607-1.083.195-1.54l8.512-4.895c.83-.459 1.833-.499 2.699-.108l8.658 4.907c.693.397.607 1.094-.195 1.551l-8.512 4.883c-.834.471-1.846.52-2.723.133zM262.107 250.733l-8.638-4.928c-.694-.396-.609-1.082.194-1.538l8.517-4.892c.832-.459 1.834-.499 2.7-.108l8.651 4.928c.694.396.609 1.093-.194 1.55l-8.517 4.88c-.836.459-1.842.499-2.713.108zM275.107 257.744l-8.638-4.942c-.694-.396-.609-1.082.194-1.539l8.517-4.881c.83-.463 1.833-.508 2.7-.12l8.651 4.93c.694.396.609 1.093-.194 1.55l-8.517 4.882c-.836.455-1.84.5-2.713.12zM288.107 266.733l-8.638-4.928c-.694-.396-.609-1.094.194-1.55l8.517-4.88c.832-.459 1.834-.499 2.7-.108l8.651 4.928c.694.396.609 1.081-.194 1.538l-8.517 4.892c-.836.459-1.842.499-2.713.108zM302.107 273.733l-8.638-4.928c-.694-.396-.609-1.082.194-1.538l8.517-4.892c.832-.459 1.834-.499 2.7-.108l8.651 4.928c.694.396.609 1.093-.194 1.55l-8.517 4.88c-.836.459-1.842.499-2.713.108zM315.107 281.739l-8.638-4.94c-.694-.384-.609-1.081.194-1.538l8.517-4.88c.83-.462 1.833-.506 2.7-.12l8.651 4.94c.694.384.609 1.081-.194 1.538l-8.517 4.88c-.834.462-1.84.506-2.713.12zM328.107 289.733l-8.638-4.928c-.694-.396-.609-1.094.194-1.55l8.517-4.88c.832-.459 1.834-.499 2.7-.108l8.651 4.928c.694.396.609 1.081-.194 1.538l-8.517 4.892c-.836.459-1.842.499-2.713.108zM341.107 296.733l-8.638-4.928c-.694-.396-.609-1.082.194-1.538l8.517-4.892c.832-.459 1.834-.499 2.7-.108l8.651 4.928c.694.396.609 1.093-.194 1.55l-8.517 4.88c-.836.459-1.842.499-2.713.108zM354.107 303.738l-8.638-4.929c-.694-.396-.609-1.094.194-1.55l8.517-4.882c.831-.456 1.831-.501 2.7-.12l8.651 4.941c.694.397.609 1.082-.194 1.54l-8.517 4.88c-.834.463-1.84.508-2.713.12zM368.107 312.733l-8.638-4.928c-.694-.396-.609-1.094.194-1.55l8.517-4.88c.832-.459 1.834-.499 2.7-.108l8.651 4.928c.694.396.609 1.081-.194 1.538l-8.517 4.892c-.836.459-1.842.499-2.713.108zM242.12 223.733l-8.651-4.928c-.694-.396-.609-1.081.194-1.538l8.517-4.892c.836-.459 1.842-.499 2.713-.108l8.638 4.928c.694.396.609 1.094-.194 1.55l-8.517 4.88c-.832.459-1.834.499-2.7.108zM228.112 217.736l-8.643-4.93c-.694-.396-.609-1.093.195-1.55l8.521-4.881c.832-.459 1.836-.499 2.703-.108l8.643 4.929c.694.397.609 1.082-.195 1.539l-8.521 4.893c-.833.455-1.835.495-2.703.108zM215.12 209.733l-8.651-4.928c-.694-.396-.609-1.093.194-1.55l8.517-4.88c.836-.459 1.842-.499 2.713-.108l8.638 4.928c.694.396.609 1.082-.194 1.538l-8.517 4.892c-.832.459-1.834.499-2.7.108zM202.107 201.739l-8.638-4.94c-.694-.384-.609-1.081.194-1.538l8.517-4.88c.834-.462 1.84-.506 2.713-.12l8.638 4.94c.694.384.609 1.081-.194 1.538l-8.517 4.88c-.834.462-1.84.506-2.713.12zM216.512 193.735l-9.022-5.094c-.725-.41-.636-1.116.203-1.587l2.96-1.66c.867-.477 1.915-.523 2.822-.124l9.035 5.093c.725.397.636 1.116-.203 1.587l-2.96 1.66c-.874.472-1.922.518-2.835.125zM233.52 203.736l-9.03-5.086c-.725-.41-.636-1.13.203-1.6l2.951-1.663c.874-.473 1.926-.515 2.836-.112l9.03 5.087c.725.409.636 1.116-.203 1.587l-2.964 1.65c-.865.482-1.913.532-2.823.137zM245.52 211.735l-9.03-5.094c-.725-.41-.636-1.116.203-1.587l2.951-1.66c.872-.477 1.924-.523 2.836-.124l9.03 5.094c.725.396.636 1.115-.203 1.586l-2.964 1.66c-.869.472-1.914.518-2.823.125zM258.52 219.725l-9.03-5.08c-.725-.409-.636-1.115.203-1.586l2.951-1.672c.874-.473 1.926-.515 2.836-.112l9.03 5.08c.725.409.636 1.127-.203 1.598l-2.964 1.66c-.87.473-1.917.515-2.823.112zM272.52 226.726l-9.03-5.08c-.725-.41-.636-1.128.203-1.599l2.951-1.66c.874-.473 1.926-.515 2.836-.112l9.03 5.08c.725.41.636 1.116-.203 1.587l-2.964 1.66c-.865.483-1.917.529-2.823.124zM345.525 268.725l-9.035-5.08c-.725-.409-.636-1.115.203-1.586l2.96-1.673c.87-.472 1.917-.514 2.822-.111l9.035 5.08c.725.409.636 1.127-.203 1.598l-2.96 1.66c-.87.473-1.917.515-2.822.112zM358.525 276.725l-9.035-5.08c-.725-.409-.636-1.127.203-1.598l2.96-1.66c.87-.473 1.917-.515 2.822-.112l9.035 5.08c.725.409.636 1.115-.203 1.586l-2.96 1.673c-.87.472-1.917.514-2.822.111zM371.525 284.73l-9.035-5.091c-.725-.396-.636-1.115.203-1.586l2.96-1.66c.867-.476 1.915-.522 2.822-.124l9.035 5.092c.725.396.636 1.115-.203 1.586l-2.96 1.66c-.867.476-1.915.522-2.822.124zM384.525 290.725l-9.035-5.08c-.725-.409-.636-1.115.203-1.586l2.96-1.673c.87-.472 1.917-.514 2.822-.111l9.035 5.08c.725.409.636 1.127-.203 1.598l-2.96 1.66c-.87.473-1.917.515-2.822.112zM255.12 232.743l-8.651-4.941c-.694-.385-.609-1.082.194-1.54l8.517-4.88c.834-.463 1.84-.508 2.713-.12l8.638 4.94c.694.385.609 1.083-.194 1.54l-8.517 4.88c-.831.457-1.831.502-2.7.12zM268.12 239.733l-8.651-4.928c-.694-.396-.609-1.093.194-1.55l8.517-4.88c.836-.459 1.842-.499 2.713-.108l8.638 4.928c.694.396.609 1.082-.194 1.538l-8.517 4.892c-.832.459-1.834.499-2.7.108zM282.12 246.733l-8.651-4.928c-.694-.396-.609-1.081.194-1.538l8.517-4.892c.836-.459 1.842-.499 2.713-.108l8.638 4.928c.694.396.609 1.094-.194 1.55l-8.517 4.88c-.832.459-1.834.499-2.7.108z"/>
        <path fill="#5793CE" d="M294.12 255.739l-8.651-4.93c-.694-.397-.609-1.094.194-1.551l8.517-4.882c.836-.455 1.84-.5 2.713-.12l8.638 4.942c.694.396.609 1.082-.194 1.539l-8.517 4.881c-.83.463-1.833.508-2.7.12zM308.12 262.733l-8.651-4.928c-.694-.396-.609-1.093.194-1.55l8.517-4.88c.836-.459 1.842-.499 2.713-.108l8.638 4.928c.694.396.609 1.082-.194 1.538l-8.517 4.892c-.832.459-1.834.499-2.7.108zM321.12 269.733l-8.651-4.928c-.694-.396-.609-1.081.194-1.538l8.517-4.892c.836-.459 1.842-.499 2.713-.108l8.638 4.928c.694.396.609 1.094-.194 1.55l-8.517 4.88c-.832.459-1.834.499-2.7.108zM334.117 277.733l-8.652-4.928c-.694-.396-.597-1.093.194-1.55l8.519-4.88c.836-.459 1.842-.499 2.713-.108l8.64 4.928c.694.396.609 1.082-.195 1.538l-8.518 4.892c-.832.459-1.835.499-2.701.108zM348.117 285.733l-8.652-4.928c-.694-.396-.597-1.081.194-1.55l8.519-4.88c.836-.459 1.842-.499 2.713-.108l8.64 4.928c.694.396.609 1.082-.195 1.538l-8.518 4.892c-.832.459-1.835.499-2.701.108zM361.117 292.733l-8.652-4.928c-.694-.396-.597-1.081.194-1.538l8.519-4.892c.836-.459 1.842-.499 2.713-.108l8.64 4.928c.694.396.609 1.094-.195 1.55l-8.518 4.88c-.832.459-1.835.499-2.701.108zM179.339 232.688l-24.88-14.767c-.679-.403-.595-1.112.19-1.577l8.325-4.963c.813-.466 1.793-.507 2.64-.11l24.928 14.828c.678.404.594 1.1-.19 1.565l-8.326 4.975c-.835.463-1.837.482-2.687.049zM342.339 326.716l-24.88-14.786c-.679-.404-.595-1.114.19-1.579l8.325-4.97c.813-.466 1.793-.507 2.64-.11l24.928 14.786c.678.404.594 1.102-.19 1.567l-8.326 4.982c-.825.483-1.827.524-2.687.11zM289.24 313.732l-8.769-4.952c-.703-.398-.604-1.099.197-1.558l10.349-5.845c.843-.461 1.86-.501 2.738-.109l8.77 4.952c.703.398.617 1.099-.198 1.558l-10.348 5.845c-.843.461-1.86.501-2.738.109zM192.36 258.714l-13.889-8.44c-.697-.41-.611-1.157.196-1.646l10.258-6.227c.836-.49 1.844-.533 2.714-.115l13.89 8.44c.697.424.611 1.157-.196 1.646l-10.246 6.227c-.84.49-1.851.534-2.726.115zM275.36 305.72l-13.889-8.436c-.697-.424-.611-1.17.196-1.659l10.246-6.224c.84-.49 1.851-.533 2.726-.115l13.89 8.436c.697.424.611 1.157-.196 1.646l-10.258 6.224c-.834.494-1.842.542-2.714.128zM212.36 269.714l-13.889-8.44c-.697-.424-.611-1.157.196-1.646l10.246-6.227c.84-.49 1.851-.534 2.726-.115l13.89 8.426c.697.425.611 1.171-.196 1.66l-10.246 6.227c-.84.49-1.851.534-2.726.115z"/>
        <path fill="#5793CE" d="M211.15 254l60.3 34.224c.33.117.55.424.55.768 0 .345-.22.652-.55.768l-10.439 5.916c-.85.432-1.86.432-2.71 0L198 261.464 211.15 254zM325.945 327.234l9.667 5.7c.575.336.502.922-.158 1.246l-4.192 2.494c-.683.396-1.51.433-2.225.1l-9.654-5.662c-.563-.336-.502-.922.158-1.309l4.192-2.494c.684-.384 1.506-.412 2.212-.075zM311.963 319.233l9.65 5.653c.574.335.5.93-.158 1.314l-4.185 2.48c-.687.394-1.518.426-2.233.087l-9.65-5.653c-.574-.335-.5-.93.158-1.314l4.185-2.48c.687-.394 1.518-.426 2.233-.087zM298.927 312.223l9.685 5.668c.575.335.502.917-.16 1.302l-4.2 2.48c-.686.398-1.521.435-2.24.1l-9.624-5.693c-.575-.335-.502-.918.16-1.302l4.2-2.48c.674-.37 1.48-.397 2.179-.075zM319.936 314.235l9.677 5.66c.574.335.5.917-.16 1.301l-4.19 2.477c-.686.398-1.519.435-2.236.1l-9.64-5.686c-.574-.334-.5-.916.16-1.313l4.19-2.477c.682-.373 1.498-.396 2.2-.062z"/>
        <path fill="#D4ECFF" d="M372.086 166L301 124.655 301.914 120 373 161.345zM346.077 174L296 145.583 296.923 141 347 169.417z"/>
        <path fill="#FFF" d="M341.103 160L299 135.556 299.897 131 342 155.444z"/>
        <path fill="#A777FF" d="M370.061 177L348 164.617 348.952 160 371 172.383z"/>
        <path fill="#D4ECFF" d="M294.06 85L272 72.617 272.94 68 295 80.383z"/>
        <path fill="#FFF" d="M291.06 95L269 82.617 269.94 78 292 90.383z"/>
        <path fill="#D4ECFF" d="M397.06 245L375 232.625 375.94 228 398 240.387zM286.061 117L264 104.617 264.952 100 287 112.383z"/>
        <path fill="#A777FF" d="M332.716 119.457c-.324.684-.95 1.204-1.717 1.426-.767.222-1.6.125-2.285-.267-1.508-.829-2.121-2.57-1.433-4.068.32-.686.947-1.209 1.715-1.432.769-.222 1.603-.123 2.286.273 1.513.826 2.128 2.57 1.434 4.068z"/>
        <path fill="#FFF" d="M341.72 125.449c-.322.688-.95 1.211-1.72 1.434-.769.223-1.605.124-2.29-.273-1.51-.827-2.12-2.57-1.424-4.065.322-.684.947-1.205 1.714-1.428.767-.222 1.6-.125 2.283.267 1.51.827 2.125 2.567 1.436 4.065z"/>
        <path fill="#D4ECFF" d="M351.72 131.453c-.324.685-.951 1.207-1.719 1.43-.768.223-1.601.125-2.286-.268-1.508-.827-2.122-2.569-1.435-4.068.324-.685.951-1.207 1.719-1.43.768-.223 1.601-.125 2.286.268 1.508.827 2.122 2.569 1.435 4.068z"/>
        <path fill="#A777FF" d="M360.716 136.454c-.322.685-.947 1.206-1.713 1.429-.767.222-1.6.125-2.283-.267-1.514-.823-2.13-2.567-1.436-4.065.318-.687.943-1.211 1.711-1.434.768-.223 1.603-.124 2.285.273 1.514.823 2.13 2.567 1.436 4.064z"/>
        <path fill="#8456D7" d="M204.074 113.056l-47.165-26.624c-.806-.498-1.813-.57-2.684-.192l-5.638 2.554 3.358 1.198-6.815 33.566c-.551 2.733.699 5.91 2.795 7.096l45.117 25.414-.809 3.932 5.688-2.601c1.108-.62 1.857-1.711 2.022-2.95l6.925-34.344c.552-2.697-.674-5.874-2.794-7.049z"/>
        <path fill="#A777FF" d="M190.123 159.556l-47.197-26.706c-2.097-1.204-3.347-4.384-2.796-7.13l6.953-34.452c.564-2.747 2.71-4.011 4.807-2.819l47.184 26.706c2.097 1.204 3.347 4.373 2.796 7.119l-6.953 34.463c-.552 2.747-2.71 4-4.794 2.819z"/>
        <path fill="#FFF" d="M199.147 114.253l-46.126-26.8c-.918-.604-2.104-.604-3.021 0 .685-.106 1.386.035 1.978.397l46.114 26.776c2.05 1.205 3.272 4.373 2.733 7.119l-6.797 34.46c-.168 1.116-.766 2.12-1.666 2.795 1.496-.377 2.586-1.671 2.71-3.216l6.796-34.449c.551-2.746-.672-5.878-2.721-7.082zM162.936 120.768c-.044.867-.542 1.638-1.296 2.008-.755.37-1.643.277-2.312-.241-1.698-1.143-2.586-3.224-2.262-5.303.044-.867.542-1.638 1.296-2.008.755-.37 1.643-.277 2.312.241 1.693 1.147 2.58 3.225 2.262 5.303z"/>
        <path fill="#FFF" d="M171.934 125.768c-.044.867-.542 1.638-1.296 2.008-.755.37-1.643.277-2.312-.241-1.693-1.147-2.58-3.225-2.262-5.303.044-.867.542-1.638 1.296-2.008.755-.37 1.643-.277 2.312.241 1.698 1.143 2.586 3.224 2.262 5.303zM181.936 131.768c-.044.867-.542 1.638-1.297 2.008-.754.37-1.643.277-2.312-.241-1.694-1.147-2.58-3.225-2.263-5.303.044-.867.542-1.638 1.297-2.008.754-.37 1.643-.277 2.312.241 1.694 1.147 2.58 3.225 2.263 5.303z"/>
        <path fill="#5793CE" d="M183.046 69.065l-47.164-26.633c-.802-.498-1.805-.57-2.672-.192l-5.624 2.59 3.345 1.2-6.8 33.576c-.552 2.734.698 5.912 2.793 7.099l45.094 25.35-.797 3.945 5.698-2.578c1.112-.622 1.86-1.719 2.022-2.962l6.948-34.308c.503-2.734-.747-5.9-2.843-7.087z"/>
        <path fill="#D4ECFF" d="M169.092 115.551l-47.166-26.727c-2.097-1.203-3.347-4.382-2.796-7.127l6.954-34.431c.552-2.745 2.698-4.009 4.795-2.817l47.202 26.738c2.097 1.204 3.348 4.383 2.784 7.115l-6.954 34.444c-.552 2.733-2.698 3.997-4.82 2.805z"/>
        <path fill="#FFF" d="M178.14 71.22l-46.108-26.763c-.92-.61-2.112-.61-3.032 0 .684-.117 1.386.02 1.977.385l46.121 26.764c2.05 1.205 3.271 4.387 2.72 7.122l-6.794 34.476c-.163 1.118-.762 2.124-1.666 2.796 1.497-.372 2.59-1.661 2.72-3.205l6.795-34.477c.539-2.723-.683-5.892-2.732-7.097zM141.936 77.764c-.044.869-.542 1.642-1.297 2.012-.755.37-1.643.277-2.312-.242-1.694-1.148-2.58-3.229-2.263-5.31.048-.866.547-1.635 1.301-2.002.754-.367 1.64-.274 2.308.244 1.694 1.143 2.582 3.22 2.263 5.298z"/>
        <path fill="#FFF" d="M150.935 81.767c-.044.867-.542 1.64-1.297 2.009-.755.37-1.643.277-2.312-.241-1.692-1.15-2.578-3.226-2.263-5.305.045-.87.546-1.642 1.304-2.01.758-.367 1.648-.27 2.316.254 1.69 1.144 2.573 3.22 2.252 5.293zM160.935 87.764c-.044.869-.542 1.642-1.297 2.012-.754.37-1.643.277-2.312-.242-1.693-1.148-2.58-3.229-2.262-5.31.048-.866.547-1.635 1.301-2.002.754-.367 1.64-.274 2.307.244 1.697 1.14 2.585 3.22 2.263 5.298z"/>
        <path fill="#A777FF" d="M122.496 342.74s-4.325-2.248-6.92 1.094c-2.595 3.341-6.446 11.261-6.573 16.649-.127 5.387 4.105 4.982 6.608 3.71 2.502-1.273 9.825-12.213 10.275-14.354.45-2.14-.53-5.054-1.234-5.625-.703-.57-2.156-1.475-2.156-1.475z"/>
        <path fill="#D4ECFF" d="M123.787 341.117l.21 4.772c.046 1.006-.473 1.954-1.348 2.46-1.095.594-2.363.79-3.587.554-3.488-.554-3.797-1.55-4.057-6.322-.26-4.773 8.782-1.464 8.782-1.464z"/>
        <path fill="#A777FF" d="M105.565 333.74s-4.329-2.254-6.995 1.108c-2.666 3.363-6.452 11.28-6.568 16.634-.115 5.354 4.098 4.997 6.614 3.72 2.517-1.275 9.835-12.245 10.273-14.392.439-2.146-.52-5.068-1.223-5.64-.704-.572-2.101-1.43-2.101-1.43z"/>
        <path fill="#D4ECFF" d="M107.775 332.117l.222 4.772c.046 1.01-.479 1.959-1.36 2.46-1.09.594-2.355.79-3.575.554-3.5-.554-3.81-1.55-4.057-6.322-.247-4.773 8.77-1.464 8.77-1.464z"/>
        <path fill="#173D7A" d="M147.904 245.935c-1.335-21.827-23.52 3.203-23.52 3.203L109.188 264.1l-13.68 15.096c-2.67 2.946-3.912 6.926-3.392 10.877l5.534 42.301c.279 2.086 2.057 3.639 4.151 3.626.685-.014 1.369-.075 2.045-.181 2.744-.299 4.763-2.722 4.572-5.487l-.974-39.57 28.694-17.368s13.102-5.644 11.766-27.459z"/>
        <path fill="#173D7A" d="M163.905 254.935c-1.336-21.827-23.533 3.203-23.533 3.203L125.188 273.1l-13.68 15.096c-2.67 2.946-3.912 6.926-3.392 10.877l5.522 42.301c.28 2.09 2.064 3.645 4.163 3.626.685-.015 1.368-.075 2.045-.181 2.741-.305 4.756-2.724 4.572-5.487l-.986-38.446 28.694-18.54s13.114-5.596 11.779-27.411z"/>
        <path fill="#55D9F5" d="M151.152 184.421c17.204 7.005 16.847 16.993 16.847 16.993s-3.367 36.595-2.224 61.04c.492 10.217-55.238 11.002-46.93-16.257 9.83-32.15 6.144-58.165 10.715-62.09 4.572-3.925 17.155-1.497 21.592.314z"/>
        <path fill="#FFC2B0" d="M156.847 193.64c-.872 3.388-5.319 5.177-9.92 3.996-4.602-1.18-7.65-4.902-6.778-8.278.873-3.375 5.331-5.176 9.933-3.996 4.602 1.181 7.65 4.89 6.765 8.278z"/>
        <path fill="#FFF" d="M149.225 199c-.995-.003-1.984-.139-2.946-.406-2.206-.56-4.188-1.85-5.66-3.685-1.395-1.55-1.938-3.758-1.435-5.836.504-2.078 1.98-3.732 3.906-4.373 4.36-1.652 9.225-.32 12.292 3.366 1.394 1.55 1.937 3.758 1.434 5.836-.504 2.078-1.98 3.732-3.906 4.373-1.174.489-2.425.735-3.685.725zm-2.45-13.391c-1.063-.01-2.118.199-3.107.614-1.47.442-2.61 1.68-2.992 3.253-.383 1.573.048 3.244 1.132 4.389 2.633 3.142 6.79 4.282 10.524 2.887 1.433-.508 2.547-1.72 2.992-3.256.306-1.578-.125-3.217-1.155-4.398-1.268-1.56-2.966-2.656-4.852-3.133-.823-.226-1.668-.346-2.518-.356h-.024z"/>
        <path fill="#FFC2B0" d="M144.153 183.432c.1 2.059.05 4.121-.152 6.172-.1 1.716 6.06 3.321 7.65 1.766 1.59-1.556.959-3.173 1.338-9.024.378-5.851-8.836 1.086-8.836 1.086z"/>
        <path fill="#EA9C92" d="M153 183s-1.517 5.054-9 7l.114-4.605L153 183z"/>
        <path fill="#FFC2B0" d="M157.586 169.754c1.79 6.95-2.388 14.035-9.336 15.83-6.948 1.794-14.035-2.382-15.832-9.33-1.798-6.947 2.374-14.037 9.32-15.838 3.34-.866 6.887-.368 9.86 1.383 2.972 1.752 5.126 4.614 5.988 7.955z"/>
        <path fill="#EA9C92" d="M148 173.023s-7.592 2.942-12.803 2.977c-5.211.035-4.097-3.954-4.097-3.954L146.656 170l1.344 3.023z"/>
        <path fill="#D4ECFF" d="M134.325 173.246s6.37-2.691 11.962-1.56c1.324.257 2.518.96 3.383 1.99.245.353.601.612 1.012.738 1 .221 2.618-3.871 4.543-3.957 1.926-.086 3.223 1.229 1.642 3.773-1.58 2.544-1.049 5.346-.32 5.751.728.406 9.727-5.85 2.925-19.27-6.802-13.421-25.37-5.814-28.06-3.098 0 0-2.828 2.458-5.136.27 0 0-2.58 19.247 8.049 15.363z"/>
        <path fill="#FFC2B0" d="M157.98 228.553v9.758c.003 1.115-.479 2.18-1.326 2.931L136 259.521l2.344 3.479 28.447-18.1c1.275-.897 2.096-2.28 2.258-3.8L171 223l-13.02 5.553z"/>
        <path fill="#55D9F5" d="M167.012 197s5.831 9.343 7.988 33.918c0 0-9.95 3.43-15.6 1.484-5.648-1.946 7.612-35.402 7.612-35.402z"/>
        <path fill="#2FA3BB" d="M158 209s-2.842 13.071-2.999 19.222c-.05 1.683 1.159 3.205 2.999 3.778v-23z"/>
        <path fill="#5793CE" d="M151.988 272.697l-4.54-.592-29.292-16.745c-1.175-.527-2.533-.473-3.662.145l-20.748 11.864-2.746-.362v2.706c.01.412.256.783.635.954l33.197 18.97c1.174.531 2.534.477 3.661-.146l22.604-12.915c.5-.212.845-.674.903-1.209l-.012-2.67z"/>
        <path fill="#396CAA" d="M130 262.205L127.926 261h-22.91l-11.271 6.423L91 267.06v2.7c.01.411.256.78.634.952l33.181 18.919c.583.296 1.24.418 1.891.35L130 262.204z"/>
        <path fill="#5793CE" d="M92 266.157L91 266v2.707c.007.412.21.783.52.955L92 270v-3.843zM125 288.792c1.316.333 2.748.264 4-.193V284h-4v4.792z"/>
        <path fill="#FFF" d="M124.832 286.642l-33.2-19.062c-.94-.534-.817-1.48.27-2.099l22.604-12.97c1.128-.626 2.488-.68 3.662-.146l33.2 19.05c.94.533.817 1.48-.27 2.098l-22.604 12.97c-1.126.628-2.485.687-3.662.159z"/>
        <path fill="#D4ECFF" d="M124.47 283.703l-26.955-15.787c-.763-.447-.667-1.209.214-1.74l11.834-6.746c.91-.522 2.014-.572 2.967-.133l26.955 15.787c.763.447.667 1.209-.214 1.74l-11.822 6.746c-.915.522-2.021.572-2.979.133z"/>
        <path fill="#FFC2B0" d="M116.5 251.179l-.322 2.365c-.277 2.01-.23 4.058.138 6.05l.38 2.089c.222 1.171 1.075 2.078 2.153 2.29.403.082.819-.023 1.147-.29.328-.268.539-.674.58-1.12l.518-5.032s1.152 1.699 1.75 1.699c.599 0-.633-5.032-1.923-7.913-1.29-2.88-4.42-.138-4.42-.138z"/>
        <path fill="#FFC2B0" d="M127 216.691l-3.455 6.81c-.82 1.612-1.298 3.375-1.408 5.18L120.634 252l-4.543-.118-2.06-26.175c-.067-.812-.027-1.63.119-2.43L116.517 210 127 216.691z"/>
        <path fill="#173D7A" d="M123.888 289l-2.739-3.656-28.822-16.928c-1.028-.754-1.646-1.955-1.67-3.241v-23.936L89 239.046l1.55-.914c.358-.2.797-.171 1.128.073l32.642 19.17c1.037.752 1.657 1.96 1.67 3.254v26.055c.065.543-.171 1.078-.613 1.39l-1.49.926z"/>
        <path fill="#396CAA" d="M103.715 275l-2.013-1.21-11.068-19.67v-12.903L89 239.04l1.527-.908c.354-.198.787-.17 1.113.073l32.176 19.04c.522.358.933.862 1.184 1.452L103.715 275z"/>
        <path fill="#5793CE" d="M89.9 240l-.9-.965 1.904-.905c.44-.197.981-.169 1.388.073l.708.325L89.9 240z"/>
        <path fill="#274F89" d="M124.535 257c.844.773 1.368 1.845 1.465 2.997L122.632 262 121 259.107l3.535-2.107z"/>
        <path fill="#5793CE" d="M122.33 258.335l-32.648-19.123c-.925-.547-1.67 0-1.682 1.216v25.991c.018 1.289.637 2.492 1.67 3.246l32.648 19.123c.925.547 1.682 0 1.682-1.216v-25.991c-.018-1.289-.637-2.492-1.67-3.246z"/>
        <path fill="#FFC2B0" d="M138 262.467l-.48 1.08c-.558 1.231-1.438 2.266-2.534 2.98l-3.013 1.982c-.936.628-2.12.655-3.08.072l-.101-.06c-.447-.325-.735-.846-.784-1.42-.05-.574.143-1.141.527-1.548l3.148-3.443s-1.764 1.437-2.233.867c-.468-.57 1.72-2.505 3.349-2.576 1.146-.153 2.231-.637 3.136-1.401l2.065 3.467z"/>
        <path fill="#55D9F5" d="M129.327 185S116.98 198.622 112 211.106c3.38 5.272 8.565 9.094 14.557 10.73 10.34 3.025 2.77-36.836 2.77-36.836z"/>
        <path fill="#2FA3BB" d="M124.9 220l2.1-19-5 17.792c.942.453 1.91.856 2.9 1.208z"/>
        <path fill="#FFF" d="M140.033 181.115L137 180c.851 1.758 2.097 3.105 3.556 3.845 2.117.778 2.444-1.629 2.444-1.629l-2.967-1.1zM158 175.987c.005.81-.479 1.543-1.226 1.857-.747.314-1.609.146-2.184-.425-.574-.571-.748-1.432-.439-2.181.309-.75 1.039-1.238 1.849-1.238.53-.003 1.038.204 1.413.577.376.373.587.88.587 1.41zM206.618 330.395l-55.527-32.349c-1.617-.943-1.413-2.587.455-3.626l33.536-19.524c1.944-1.093 4.286-1.192 6.312-.266l55.515 32.301c1.617.943 1.413 2.587-.455 3.627l-33.536 19.523c-1.933 1.103-4.27 1.22-6.3.314z"/>
        <path fill="#173D7A" d="M269.4 358.624l-81.033-46.61c-.846-.485-1.367-1.383-1.367-2.355s.521-1.87 1.367-2.355L265.423 263l86.21 49.581c.846.485 1.367 1.383 1.367 2.355s-.521 1.87-1.367 2.354l-71.88 41.334c-3.205 1.835-7.148 1.835-10.353 0z" opacity=".5"/>
        <path fill="#8456D7" d="M266.976 229.77c0-5.136-3.634-7.251-8.078-4.665l-75.682 43.483c-1.305.855-2.127 2.276-2.216 3.831 0 1.414.993 1.982 2.216 1.281l75.718-43.507c2.01-1.209 3.633-.218 3.633 2.103v8.46c1.466-.097 2.943-.097 4.433-.073l-.024-10.913z"/>
        <path fill="#D3008D" d="M183.16 289.68l75.747-27.779c4.77-3.125 7.776-8.352 8.093-14.072V241c-1.49 0-2.968 0-4.434.073v9.329c-.137 2.576-1.488 4.932-3.635 6.341l-75.7 27.792c-1.306.857-2.133 2.286-2.228 3.853-.06 1.488.933 2.012 2.156 1.293z"/>
        <path fill="#8456D7" d="M182 289.734L273.438 343 350.856 296.512 357 287.289 356.363 290.557 354.716 282 211 287.519 185.679 285.873z"/>
        <path fill="#D0B5FF" d="M184.024 273L184 284.366 272.601 336 275 325.168z"/>
        <path fill="#A777FF" d="M356 277.853L264.062 225 181.17 272.896 181 274.075 273.071 327z"/>
        <path fill="#FFF" d="M327.353 305.146l21.43-12.853c1.904-1.445 3.081-3.666 3.217-6.07v-1.698c0-1.384-.576-2.27-1.453-2.525l-42.187 23.729L274 324.518V336l53.353-30.854z"/>
        <path fill="#8456D7" d="M277 325.268l-91.69-52.153-1.932-1.1-1.786-1.015c-.355.622-.555 1.318-.583 2.031-.059.544.182 1.077.632 1.398L273.987 327l3.013-1.732z"/>
        <path fill="#FFF" d="M271 342.335L272.681 342.885 273 342.575 271.956 342.115zM272.015 326.22L272.985 326.78 272.745 326.25z"/>
        <path fill="#8456D7" d="M274.228 321.461l75.708-43.37c4.444-2.554 8.064-.47 8.064 4.638v1.687c-.319 5.654-3.322 10.82-8.088 13.915l-75.696 43.37c-1.211.699-2.216.132-2.216-1.277.076-1.554.9-2.977 2.216-3.82l75.696-43.37c2.147-1.397 3.496-3.728 3.632-6.276v-1.687c0-2.3-1.634-3.24-3.632-2.096l-75.696 43.37c-1.211.7-2.216.12-2.216-1.277.082-1.552.912-2.97 2.228-3.807z"/>
        <path fill="#FFF" d="M273.188 341.154c.075-1.566.893-2.999 2.196-3.847l75.016-43.698c2.127-1.408 3.464-3.757 3.6-6.324v-1.7c0-1.517-.696-2.427-1.74-2.585.38.55.566 1.212.528 1.881v1.712c-.14 2.563-1.476 4.907-3.6 6.312l-74.992 43.661c-1.303.849-2.121 2.282-2.196 3.848 0 1.068.564 1.663 1.368 1.578-.116-.264-.177-.549-.18-.838zM272.22 326.17c.057-1.574.878-3.022 2.198-3.88l75.533-43.515c1.474-1.017 3.324-1.327 5.049-.846-1.474-1.208-3.733-1.317-6.27.145l-75.52 43.515c-1.311.845-2.135 2.272-2.21 3.832 0 1.063.568 1.656 1.377 1.571-.107-.26-.16-.54-.157-.822zM238 279.061L279.232 255 315 275.951 273.756 300z"/>
        <path fill="#173D7A" d="M387.967 455.185l-56.564-32.664c-2.074-1.213-1.82-3.288.57-4.671l59.973-34.715c2.488-1.388 5.488-1.51 8.08-.327l56.576 32.664c2.074 1.213 1.808 3.288-.583 4.671l-59.911 34.703c-2.503 1.409-5.53 1.535-8.141.34z" opacity=".5"/>
        <path fill="url(#prefix__a)" d="M456.742 394.491l-60.484-34.726c-2.353-1.351-4.258-4.983-4.258-8.096V207.708c0-3.125 1.905-4.55 4.258-3.198l60.484 34.727c2.353 1.351 4.258 4.97 4.258 8.096v143.961c0 3.113-1.905 4.549-4.258 3.197z"/>
        <path fill="#396CAA" d="M456.805 239.201l-59.807-34.694c-.795-.576-1.84-.668-2.723-.241L326 243.855l3.215 11.958L391.468 434l68-39.42.12-.073c1.003-.815 1.527-2.085 1.39-3.375V247.29c.037-3.122-1.846-6.738-4.173-8.089z"/>
        <path fill="#D4ECFF" d="M456.939 238.966l-60.325-34.463c-.802-.571-1.856-.663-2.747-.239L325 243.589l3.243 11.878 17.265 48.677 3.254 1.856L460 242.439c-.672-1.418-1.733-2.62-3.061-3.473z"/>
        <path fill="#5793CE" d="M388.741 433.52l-60.483-34.723c-2.353-1.351-4.258-4.983-4.258-8.096V246.707c0-3.124 1.905-4.548 4.258-3.197l60.483 34.723c2.354 1.351 4.258 4.97 4.258 8.095v143.946c.049 3.113-1.832 4.549-4.258 3.246z"/>
        <path fill="url(#prefix__b)" d="M384.295 425.554l-52.59-30.4c-2.285-1.645-3.659-4.274-3.705-7.092V254.25c0-2.73 1.665-3.987 3.705-2.803l52.59 30.4c2.289 1.635 3.664 4.264 3.705 7.08V422.75c.036 2.73-1.654 3.987-3.705 2.803z"/>
        <path fill="url(#prefix__b)" d="M384.295 425.554l-52.59-30.4c-2.285-1.645-3.659-4.274-3.705-7.092V254.25c0-2.73 1.665-3.987 3.705-2.803l52.59 30.4c2.289 1.635 3.664 4.264 3.705 7.08V422.75c.036 2.73-1.654 3.987-3.705 2.803z"/>
        <path fill="#173D7A" d="M384.295 425.554l-52.59-30.4c-2.285-1.645-3.659-4.274-3.705-7.092V254.25c0-2.73 1.665-3.987 3.705-2.803l52.59 30.4c2.289 1.635 3.664 4.264 3.705 7.08V422.75c.036 2.73-1.654 3.987-3.705 2.803z"/>
        <path fill="#396CAA" d="M386.539 424.518l-53.072-30.385c-2.302-1.646-3.684-4.274-3.726-7.089v-133.81c-.03-.78.155-1.552.536-2.234-1.34 0-2.277 1.208-2.277 3.249v133.81c.047 2.816 1.433 5.444 3.738 7.089l53.06 30.385c.487.384 1.117.542 1.73.433.613-.108 1.15-.473 1.472-1-.518-.019-1.023-.173-1.461-.448z"/>
        <path fill="#173D7A" d="M384.324 364.208L364.927 353 334 370.866 388 402v-30.775c-.04-2.79-1.405-5.395-3.676-7.017z"/>
        <path fill="#173D7A" d="M384.324 336.196L364.927 325 334 342.866 388 374v-30.775c-.04-2.793-1.404-5.402-3.676-7.029z"/>
        <path fill="#173D7A" d="M384.324 309.208L364.927 298 334 315.866 388 347v-30.775c-.038-2.79-1.403-5.396-3.676-7.017z"/>
        <path fill="#173D7A" d="M384.324 282.196L364.927 271 334 288.866 388 320v-30.775c-.038-2.794-1.403-5.403-3.676-7.029z"/>
        <path fill="#173D7A" d="M384.372 281.21L341.388 256 334 260.336 388 292v-3.654c-.03-2.828-1.377-5.475-3.628-7.136z"/>
        <path fill="#5793CE" d="M388 292.591L334 261 334 278.409 388 310zM388 320.595L334 289 334 306.417 388 338zM388 346.591L334 315 334 332.409 388 364zM388 374.591L334 343 334 360.409 388 392zM388 401.591L334 370 334 387.409 388 419z"/>
        <path fill="#173D7A" d="M383.922 303.747L343.09 279.66c-1.29-.943-2.066-2.456-2.09-4.076v-4.715c0-1.571.937-2.296 2.09-1.608l40.832 24.076c1.281.95 2.05 2.459 2.078 4.076v4.727c0 1.559-.877 2.283-2.078 1.608z"/>
        <path fill="#06033E" d="M345.162 278.728c-1.29-.943-2.067-2.452-2.093-4.07v-4.707c.001-.231.03-.461.084-.686h-.06c-1.203-.686-2.093 0-2.093 1.606v4.694c.024 1.618.801 3.129 2.093 4.07l40.898 24.049c.356.327.868.408 1.304.206.437-.202.713-.65.705-1.138l-40.838-24.024z" opacity=".3"/>
        <path fill="#FFF" d="M370.25 291.905l-24.518-14.774c-.455-.338-.727-.883-.732-1.465 0-.564.324-.814.732-.576l24.518 14.787c.458.33.735.871.744 1.452.06.564-.336.826-.744.576z"/>
        <path fill="#173D7A" d="M383.922 330.74l-40.832-24.076c-1.289-.944-2.064-2.456-2.09-4.076v-4.715c0-1.571.937-2.296 2.09-1.62l40.832 24.064c1.284.947 2.054 2.458 2.078 4.076v4.715c0 1.596-.877 2.32-2.078 1.632z"/>
        <path fill="#06033E" d="M345.162 305.684c-1.292-.941-2.069-2.451-2.093-4.07v-4.68c.002-.228.03-.454.084-.675h-.06c-1.203-.674-2.093 0-2.093 1.618v4.706c.026 1.617.803 3.126 2.093 4.069l40.898 24.032c.356.327.868.408 1.304.206.437-.202.713-.65.705-1.137l-40.838-24.07z" opacity=".3"/>
        <path fill="#FFF" d="M370.25 317.93l-24.518-14.792c-.452-.34-.724-.884-.732-1.466 0-.564.324-.828.732-.577l24.518 14.791c.455.34.73.883.744 1.467.06.577-.336.765-.744.577z"/>
        <path fill="#173D7A" d="M383.922 358.746l-40.832-24.091c-1.288-.939-2.064-2.447-2.09-4.064v-4.728c0-1.571.937-2.284 2.09-1.608l40.832 24.079c1.281.95 2.05 2.46 2.078 4.076v4.777c0 1.51-.877 2.235-2.078 1.56z"/>
        <path fill="#06033E" d="M345.162 333.72c-1.29-.942-2.067-2.45-2.093-4.068v-4.706c.001-.231.03-.462.084-.686h-.06c-1.203-.674-2.093 0-2.093 1.605v4.718c.026 1.614.803 3.12 2.093 4.057l40.898 24.044c.356.327.868.408 1.304.206.437-.202.713-.65.705-1.137l-40.838-24.032z" opacity=".3"/>
        <path fill="#D4ECFF" d="M370.25 345.912l-24.518-14.782c-.455-.338-.727-.882-.732-1.465 0-.563.324-.813.732-.575l24.518 14.782c.458.33.735.871.744 1.452.06.563-.336.826-.744.588z"/>
        <path fill="#173D7A" d="M383.922 386.74l-40.832-24.08c-1.29-.942-2.066-2.455-2.09-4.076v-4.715c0-1.572.937-2.297 2.09-1.609l40.832 24.08c1.284.946 2.054 2.458 2.078 4.076v4.715c0 1.572-.877 2.297-2.078 1.609z"/>
        <path fill="#06033E" d="M345.162 361.715c-1.29-.937-2.067-2.442-2.093-4.057v-4.719c.002-.227.03-.453.084-.674h-.06c-1.203-.686-2.093 0-2.093 1.606v4.707c.024 1.618.801 3.128 2.093 4.07l40.898 24.036c.356.327.868.408 1.304.206.437-.202.713-.65.705-1.138l-40.838-24.037z" opacity=".3"/>
        <path fill="#55D9F5" d="M370.25 372.905l-24.518-14.77c-.452-.34-.724-.883-.732-1.464 0-.564.324-.826.732-.576l24.518 14.77c.455.339.73.881.744 1.464.06.564-.336.826-.744.576z"/>
        <path fill="#173D7A" d="M383.922 413.748l-40.832-24.08c-1.29-.943-2.066-2.455-2.09-4.075v-4.725c0-1.571.937-2.295 2.09-1.608l40.832 24.068c1.284.946 2.054 2.457 2.078 4.074v4.713c0 1.583-.877 2.308-2.078 1.633z"/>
        <path fill="#06033E" d="M345.162 388.715c-1.29-.937-2.067-2.442-2.093-4.057v-4.719c.002-.227.03-.453.084-.674h-.06c-1.203-.686-2.093 0-2.093 1.606v4.707c.024 1.618.801 3.128 2.093 4.07l40.898 24.036c.356.327.868.408 1.304.206.437-.202.713-.65.705-1.138l-40.838-24.037z" opacity=".3"/>
        <path fill="#D4ECFF" d="M370.25 400.905l-24.518-14.77c-.452-.34-.724-.883-.732-1.464 0-.564.324-.826.732-.576l24.518 14.77c.455.339.73.881.744 1.464.06.564-.336.826-.744.576z"/>
        <path fill="#173D7A" d="M334 261L338 263.5 338 281 334 278.5zM334 289L338 291.511 338 309 334 306.502zM334 315L338 317.5 338 335 334 332.5zM334 343L338 345.5 338 363 334 360.5zM334 371L338 373.5 338 391 334 388.5z" opacity=".5"/>
        <path fill="#D4ECFF" d="M375 292.164c0 .743-.444 1.05-1 .678-.587-.454-.957-1.2-1-2.019 0-.742.458-1.033 1-.662.591.441.964 1.187 1 2.003z"/>
        <path fill="#55D9F5" d="M379 295.164c0 .743-.444 1.05-1 .678-.592-.448-.963-1.199-1-2.019 0-.742.444-1.033 1-.662.591.441.964 1.187 1 2.003z"/>
        <path fill="#D4ECFF" d="M383 297.164c0 .743-.444 1.05-1 .678-.592-.448-.963-1.199-1-2.019 0-.742.444-1.033 1-.662.591.441.964 1.187 1 2.003z"/>
        <path fill="#55D9F5" d="M375 320.182c0 .725-.442 1.03-.995.66-.584-.452-.953-1.196-.996-2.011-.044-.295.075-.59.298-.738.224-.148.503-.117.698.078.589.447.959 1.194.995 2.011z"/>
        <path fill="#D4ECFF" d="M379 323.179c0 .727-.444 1.034-1 .663-.588-.446-.96-1.19-1-2.005 0-.744.444-1.05 1-.679.592.449.963 1.2 1 2.02z"/>
        <path fill="#FFF" d="M383 324.179c0 .727-.444 1.034-1 .663-.588-.446-.96-1.19-1-2.005 0-.744.444-1.05 1-.679.592.449.963 1.2 1 2.02zM375 348.164c0 .743-.444 1.05-1 .678-.587-.454-.957-1.2-1-2.019 0-.742.458-1.033 1-.662.593.44.966 1.186 1 2.003z"/>
        <path fill="#55D9F5" d="M379 349.164c0 .743-.444 1.05-1 .678-.592-.448-.963-1.199-1-2.019 0-.742.444-1.033 1-.662.593.44.966 1.186 1 2.003z"/>
        <path fill="#FFF" d="M383 352.164c0 .743-.444 1.05-1 .678-.592-.448-.963-1.199-1-2.019 0-.742.444-1.033 1-.662.591.441.964 1.187 1 2.003zM375 375.164c0 .743-.444 1.05-1 .678-.587-.454-.957-1.2-1-2.019 0-.742.458-1.033 1-.662.591.441.964 1.187 1 2.003z"/>
        <path fill="#D4ECFF" d="M379 377.164c0 .743-.444 1.05-1 .678-.592-.448-.963-1.199-1-2.019 0-.742.444-1.033 1-.662.591.441.964 1.187 1 2.003zM383 379.164c0 .743-.444 1.05-1 .678-.592-.448-.963-1.199-1-2.019 0-.742.444-1.033 1-.662.588.445.96 1.188 1 2.003z"/>
        <path fill="#FFF" d="M375 402.164c0 .743-.444 1.05-1 .678-.587-.454-.957-1.2-1-2.019 0-.742.458-1.033 1-.662.591.441.964 1.187 1 2.003z"/>
        <path fill="#55D9F5" d="M379 405.164c0 .743-.444 1.05-1 .678-.592-.448-.963-1.199-1-2.019 0-.742.444-1.033 1-.662.591.441.964 1.187 1 2.003z"/>
        <path fill="#D4ECFF" d="M383 406.164c0 .743-.444 1.05-1 .678-.592-.448-.963-1.199-1-2.019 0-.742.444-1.033 1-.662.591.441.964 1.187 1 2.003z"/>
        <path fill="#173D7A" d="M401 415V291.856l.256-.146L453 262v123.144l-.256.146L401 415zm1.024-122.55v120.792l49.965-28.692V263.758l-49.965 28.692z"/>
        <path fill="#173D7A" d="M439.153 317.452l-23.318 13.214c-1.57.89-2.835-.06-2.835-2.102v-12.698c.032-2.11 1.084-4.08 2.835-5.31l23.318-13.213c1.57-.89 2.847 0 2.847 2.102v12.673c-.029 2.12-1.086 4.1-2.847 5.334z"/>
        <path fill="#5793CE" d="M440.7 297.085c.147.41.219.84.21 1.274v12.684c-.031 2.11-1.09 4.08-2.855 5.31l-23.486 13.213c-.181.102-.372.186-.569.252.152.523.562.937 1.094 1.104.532.166 1.114.063 1.551-.275l23.487-13.213c1.77-1.231 2.835-3.206 2.868-5.322V299.44c-.025-1.802-.989-2.74-2.3-2.355z"/>
        <path fill="#FFF" d="M434.992 310.098c.551-.248 1.008 0 1.008.458v2.972c-.042.557-.415 1.067-1.008 1.374-.551.248-.992 0-.992-.458v-2.984c.035-.553.404-1.059.992-1.362z"/>
        <path fill="#D4ECFF" d="M433 311.112c.547-.281 1 0 1 .495v2.81c-.039.599-.41 1.146-1 1.471-.547.281-1 0-1-.482v-2.823c.039-.6.41-1.146 1-1.471z"/>
        <path fill="#55D9F5" d="M429 311.096c.547-.241 1 0 1 .414v5.133c-.041.515-.412.985-1 1.266-.547.23-1 0-1-.426v-5.12c.039-.517.41-.987 1-1.267z"/>
        <path fill="#D4ECFF" d="M426 310.092c.547-.232 1 0 1 .428v8.103c-.041.522-.412.998-1 1.285-.547.232-1 0-1-.428v-8.103c.036-.523.408-1 1-1.285zM422 313.1c.547-.254 1 0 1 .47v7.927c-.039.569-.41 1.088-1 1.397-.547.267-1 0-1-.457v-7.99c.06-.55.43-1.047 1-1.347z"/>
        <path fill="#FFF" d="M420.008 317.1c.551-.25.992 0 .992.44v4.057c-.035.531-.404 1.017-.992 1.309-.551.238-1.008 0-1.008-.44v-4.058c.039-.533.414-1.02 1.008-1.309z"/>
        <path fill="#55D9F5" d="M434 308.45c0 .493.448.69.992.444.595-.298.97-.798 1.008-1.344 0-.493-.448-.69-1.008-.444-.587.303-.955.8-.992 1.344z"/>
        <path fill="#FFF" d="M434 305.45c0 .493.448.69.992.444.595-.298.97-.798 1.008-1.344 0-.493-.448-.69-1.008-.444-.587.303-.955.8-.992 1.344z"/>
        <path fill="#173D7A" d="M34.885 271.23L2.35 252.576c-2-1.183-1.75-3.148.56-4.474l31.414-18.013c2.393-1.331 5.282-1.45 7.779-.32l32.545 18.653c2 1.183 1.75 3.148-.56 4.474L42.663 270.91c-2.393 1.331-5.282 1.45-7.778.32z" opacity=".5"/>
        <path fill="#396CAA" d="M75.993 230.475v-11.531h-25.16l-8.713-5.148c-2.498-1.168-5.388-1.045-7.783.33l-8.129 4.806H1v11.848c-.011.923.514 1.764 1.335 2.14l32.55 19.295c2.501 1.156 5.388 1.03 7.783-.342l31.43-18.61c1.335-.82 1.978-1.835 1.895-2.788z"/>
        <path fill="#396CAA" d="M38 213c-1.479.02-2.93.406-4.228 1.124l-8.237 4.804H0v11.843c-.011.922.52 1.763 1.353 2.139l32.987 19.298c1.12.578 2.369.848 3.624.782L38 213z"/>
        <path fill="#5793CE" d="M4 219H0v11.943c-.016.93.721 1.778 1.875 2.157L4 234v-15zM35 251.457c1.942.748 4.075.722 6-.073V238h-6v13.457z"/>
        <path fill="#D4ECFF" d="M34.885 240.25L2.35 221.577c-2-1.184-1.75-3.138.56-4.464l31.414-18.022c2.393-1.332 5.282-1.45 7.779-.32l32.545 18.614c2 1.184 1.75 3.15-.56 4.476l-31.426 18.022c-2.386 1.347-5.275 1.483-7.778.367z"/>
        <path fill="#FFF" d="M74.076 219.418L42.658 237.67c-2.398 1.338-5.281 1.459-7.78.325l-32.539-18.95c-.391-.222-.732-.525-1-.889-.345.532-.432 1.193-.237 1.797.194.605.649 1.088 1.237 1.315l32.539 18.95c2.496 1.147 5.386 1.027 7.78-.325l31.418-18.288c1.787-1.046 2.383-2.5 1.56-3.605-.396.594-.932 1.081-1.56 1.418z"/>
        <path fill="#D4ECFF" d="M65 233.107c-.055 1.09-.61 2.086-1.493 2.681-.828.492-1.507.099-1.507-.884.07-1.103.644-2.105 1.548-2.695.787-.492 1.452-.085 1.452.898zM68 231.095c-.058 1.096-.618 2.098-1.507 2.693-.814.493-1.493.098-1.493-.889.059-1.092.613-2.091 1.493-2.693.828-.507 1.507-.028 1.507.889zM73 229.097c-.058 1.094-.618 2.092-1.507 2.685-.828.506-1.493.098-1.493-.886.052-1.09.608-2.09 1.493-2.684.828-.492 1.507-.099 1.507.885z"/>
        <path fill="#5793CE" d="M36.27 228.65l-15.627-8.684c-.954-.53-.832-1.47.269-2.082l15.077-8.378c1.152-.616 2.539-.673 3.741-.153l15.627 8.684c.954.53.832 1.459-.269 2.082L40 228.497c-1.149.612-2.53.669-3.73.153z"/>
        <path fill="#D4ECFF" d="M38.271 221.917l-2.174-1.704c-.136-.102-.123-.29 0-.426l2.1-1.704c.168-.11.364-.11.532 0l2.174 1.704c.136.102.123.29 0 .426l-2.1 1.704c-.168.11-.364.11-.532 0z"/>
        <path fill="#396CAA" d="M20.649 220c.073 0 .134-.106.22-.153l15.129-8.38c1.152-.618 2.54-.675 3.742-.154L55.32 220c.88-.614.93-1.44 0-1.936l-15.63-8.71c-1.203-.521-2.59-.464-3.742.153l-15.092 8.404c-1.04.614-1.162 1.558-.208 2.089z"/>
    </g>
</svg>
