<svg xmlns="http://www.w3.org/2000/svg" width="117" height="29" viewBox="0 0 117 29">
    <g fill="none">
        <path fill="#2C3E50" d="M0 7.649L4.815 7.649 9.901 23.082 9.981 23.082 14.876 7.649 19.46 7.649 12.297 27.73 7.299 27.73zM37.408 23.265c0 1.09.239 1.512 1.05 1.512h.47c.209-.01.416-.035.621-.072v3.065c-.908.287-1.85.459-2.801.509-1.823 0-3.065-.629-3.415-2.451-1.751 1.71-4.584 2.451-6.956 2.451-3.606 0-6.869-1.942-6.869-5.866 0-5.014 3.98-5.826 7.728-6.256 3.184-.62 6.017-.19 6.017-2.833 0-2.332-2.387-2.722-4.154-2.722-2.483 0-4.235 1.01-4.426 3.183h-4.44c.31-5.165 4.663-6.677 9.128-6.677 3.924 0 8.04 1.591 8.04 5.826l.007 10.33zm-4.425-5.572c-1.361.9-3.454.86-5.436 1.21-1.982.35-3.622.995-3.622 3.311 0 2.022 2.523 2.563 4.075 2.563 1.942 0 4.975-1.01 4.975-3.805l.008-3.279zM40.592 7.649h4.155v3.884h.08c.509-2.133 3.183-4.425 5.865-4.425.56-.006 1.118.034 1.671.119v4.266c-.627-.119-1.263-.183-1.902-.191-2.992 0-5.436 2.388-5.436 6.877v9.55h-4.433V7.65zM68.011 23.456h-.08c-1.67 3.183-4.082 4.775-7.656 4.775-6.017 0-8.62-4.934-8.62-10.41 0-5.906 2.873-10.49 8.898-10.49 3.269-.127 6.247 1.865 7.379 4.934h.08V0h1.472v27.73H68.01v-4.274zm0-5.667c0-4.664-2.292-9.209-7.418-9.209-5.285 0-7.418 4.393-7.418 9.209 0 4.696 2.324 9.129 7.45 9.129s7.346-4.545 7.346-9.13h.04zM80.865 7.299c5.906 0 9.161 4.775 9.161 10.45 0 5.675-3.27 10.45-9.16 10.45-5.89 0-9.17-4.775-9.17-10.45 0-5.675 3.264-10.45 9.17-10.45zm0 19.619c4.967 0 7.689-4.394 7.689-9.169 0-4.776-2.722-9.169-7.689-9.169-4.966 0-7.688 4.393-7.688 9.169 0 4.775 2.714 9.169 7.688 9.169zM99.275 9.05H94.92v13.944c0 3.184 1.52 3.574 4.314 3.454v1.282c-2.953.199-5.985-.231-5.786-4.776V9.05h-3.693V7.768h3.693V1.592h1.472v6.176h4.354V9.05z"/>
        <rect width="10.299" height="10.299" x="106.223" y="17.208" fill="#338EC7" rx=".96"/>
        <rect width="4.712" height="4.712" x="109.017" y="20.001" fill="#FFF" rx=".96"/>
        <path fill="#636464" d="M101.933.127V0h1.536v.096h-.668v2.037h-.12V.127h-.748zM105.515 0L105.698 0 105.698 2.165 105.579 2.165 105.579.191 104.783 1.576 104.735 1.576 104.608 1.576 104.56 1.576 103.764.191 103.764 2.133 103.644 2.133 103.644 0 103.828 0 103.828 0 104.623 1.457 105.419 0z"/>
    </g>
</svg>
