<svg xmlns="http://www.w3.org/2000/svg" width="34" height="32" viewBox="0 0 34 32">
    <g fill="none">
        <path fill="#ECEFF1" d="M32.938 27.676H18.062c-.586 0-1.062-.475-1.062-1.065V5.323c0-.588.476-1.065 1.063-1.065h14.875c.586 0 1.062.477 1.062 1.065V26.61c0 .59-.476 1.065-1.063 1.065z"/>
        <g fill="#1976D2">
            <path d="M11.688 2.13H1.062C.477 2.13 0 1.653 0 1.064 0 .475.476 0 1.063 0h10.624c.587 0 1.063.477 1.063 1.065 0 .587-.476 1.064-1.063 1.064zM11.688 6.387H1.062C.477 6.387 0 5.912 0 5.323c0-.59.476-1.065 1.063-1.065h10.624c.587 0 1.063.477 1.063 1.065 0 .587-.476 1.064-1.063 1.064zM11.688 10.645H1.062C.477 10.645 0 10.17 0 9.58s.476-1.064 1.063-1.064h10.624c.587 0 1.063.477 1.063 1.064 0 .588-.476 1.065-1.063 1.065zM11.688 14.903H1.062C.477 14.903 0 14.428 0 13.838s.476-1.064 1.063-1.064h10.624c.587 0 1.063.477 1.063 1.064 0 .588-.476 1.065-1.063 1.065z" transform="translate(17 8.516)"/>
        </g>
        <path fill="#1565C0" d="M18.74.247c-.242-.204-.567-.29-.873-.228l-17 3.194C.365 3.306 0 3.747 0 4.258v23.418c0 .51.363.952.867 1.045l17 3.194c.066.012.13.019.195.019.247 0 .487-.085.678-.245.245-.202.385-.503.385-.82V1.065c0-.317-.14-.616-.385-.818z"/>
        <path fill="#FAFAFA" d="M13.806 21.408c-.055.488-.438.878-.924.937-.045.007-.087.009-.132.009-.438 0-.837-.273-.995-.69l-2.193-5.859-2.192 5.859c-.17.456-.617.734-1.11.683-.482-.05-.869-.425-.937-.909l-1.062-7.45c-.083-.58.32-1.12.9-1.204.583-.085 1.12.322 1.203.903l.474 3.33 1.728-4.618c.31-.83 1.679-.83 1.991 0l1.628 4.347.571-5.156c.066-.583.606-1.003 1.173-.941.585.068 1.003.594.94 1.177l-1.063 9.582z"/>
    </g>
</svg>
